<svg xmlns="http://www.w3.org/2000/svg" xmlns:svg="http://www.w3.org/2000/svg" id="svg3416" width="256" height="256" version="1.1"><metadata id="metadata3421"/><g id="layer1" transform="translate(0,208)"><path style="fill:#fff;fill-rule:evenodd;stroke:none;display:inline" id="path3880" d="m 6.000002,-202 2,0 0,2 -2,0 0,-2 z"/><path style="fill:#fff;fill-rule:evenodd;stroke:none;display:inline" id="path3882" d="m 22.000002,-199 c 0,0 0,-4 4,-4 l 5,0 0,10 -9,0 0,-6 z"/><path style="fill:#fff;fill-rule:evenodd;stroke:none;display:inline" id="path3884" d="m 34.000001,-203 12,0 0,6 -12,0 0,-6 0,0 z"/><path id="path3886" d="m 58.000001,-199 c 0,0 0,-4 -4,-4 l -5,0 0,10 9,0 0,-6 z" style="fill:#fff;fill-rule:evenodd;stroke:none;display:inline"/><path style="fill:#fff;fill-rule:evenodd;stroke:none;display:inline" id="path3888" d="m 70.000001,-207 9,0 0,14 -9,0 0,-14 z"/><path id="path3890" d="m 97.000001,-207 8.999999,0 0,14 -8.999999,0 0,-14 z" style="fill:#fff;fill-rule:evenodd;stroke:none;display:inline"/><path id="path3892" d="m 118,-201 c 0,0 0,4 4,4 l 5,0 0,-10 -9,0 0,6 z" style="fill:#fff;fill-rule:evenodd;stroke:none;display:inline"/><path id="path3894" d="m 130.01456,-197.023 11.97088,0 0,-10.03733 -11.97088,0 0,10.03733 0,0 z" style="fill:#fff;fill-rule:evenodd;stroke:none;display:inline"/><path style="fill:#fff;fill-rule:evenodd;stroke:none;display:inline" id="path3896" d="m 154,-201 c 0,0 0,4 -4,4 l -5,0 0,-10 9,0 0,6 z"/><path style="fill:#fff;fill-rule:evenodd;stroke:none;display:inline" id="path3898" d="m 162,-195 0,2 10,0 0,-2 -10,0 z"/><path style="fill:#fff;fill-rule:evenodd;stroke:none;display:inline" id="path3900" d="m 178,-207 0,14 12,0 0,-14 -12,0 z"/><path style="fill:#fff;fill-rule:evenodd;stroke:none;display:inline" id="path3902" d="m 210,-207 0,12 c 4,-4 12,-6 12,-6 0,0 -8,-2 -12,-6 z"/><path style="fill:none;stroke:none;display:inline" id="path3904" d="m 230,-201 0,2 2,0 0,-2 -2,0 z"/><path style="fill:none;stroke:none;display:inline" id="path3906" d="m 246,-201 2,0 0,2 -2,0 0,-2 z"/><path id="path3282" d="m 36.000001,-111 0,11.999999 c 0,0 4,0 4,0 0,0 4,0 4,-3.999999 l 0,-1 c 0,0 0,-4 -4,-4 0,0 -2,0 -2,0 l 0,-3 -2,0 z m 6,7 0,1 c 0,2 -2,2 -2,2 0,0 -2,0 -2,0 l 0,-5 c 0,0 2,0 2,0 0,0 2,0 2,2 z" style="fill:#fff;fill-rule:evenodd;stroke:none;display:inline"/><path style="fill:#fff;fill-rule:evenodd;stroke:none;display:inline" id="path3287" d="m 56.000001,-108 c 0,0 -4,0 -4,4 0,0 0,1 0,1 0,3.999999 4,3.999999 4,3.999999 0,0 3.994018,0 3.994018,-2.999999 l -2,0 c 0,1 -1.994018,1 -1.994018,1 0,0 -2,0 -2,-2 l 0,-1 c 0,-2 1.994018,-2 1.994018,-2 0,0 2,0 2,1 l 2,0 c 0,-3 -3.994018,-3 -3.994018,-3 z"/><path style="fill:#fff;fill-rule:evenodd;stroke:none;display:inline" id="path3295" d="m 100,-107 2,0 c 0,-4 4,-4 4,-4 l 2,0 0,2 -2,0 c 0,0 -2,0 -2,2 l 2,0 0,2 -2,0 0,5.999999 -2,0 0,-5.999999 -2,0 0,-2 z"/><path style="fill:#fff;fill-rule:evenodd;stroke:none;display:inline" id="path3299" d="m 132,-111 0,11.999999 2,0 L 134,-104 c 0,-2 2,-2 2,-2 0,0 2,0 2,2 l 0,4.999999 2,0 L 140,-104 c 0,-4 -4,-4 -4,-4 0,0 -2,0 -2,1 l 0,-4 -2,0 z"/><path id="path3301" d="m 150,-99.000001 2,0 0,-7.999999 -2,0 0,7.999999 z M 150,-111 c 0,0 0,2 0,2 0,0 2,0 2,0 0,0 0,-2 0,-2 0,0 -2,0 -2,0 z" style="fill:#fff;fill-rule:evenodd;stroke:none;display:inline"/><path style="fill:#fff;fill-rule:evenodd;stroke:none;display:inline" id="path3306" d="m 166,-99.000001 0,2 c 0,0 4,0 4,-3.999999 l 0,-6 -2,0 0,6 c 0,1.999999 -2,1.999999 -2,1.999999 z M 168,-111 c 0,0 0,2 0,2 0,0 2,0 2,0 0,0 0,-2 0,-2 0,0 -2,0 -2,0 z"/><path style="fill:#fff;fill-rule:evenodd;stroke:none;display:inline" id="path3308" d="m 180,-111 0,11.999999 2,0 0,-2.999999 1,0 c 0,0 3,2.999999 3,2.999999 l 2,0 c 0,0 0,-0.999999 0,-0.999999 0,0 -4,-4 -4,-4 l 3,-3 0,-1 -2,0 -3,3 0,-6 -2,0 z"/><path style="fill:#fff;fill-rule:evenodd;stroke:none;display:inline" id="path3310" d="m 198,-111 0,11.999999 c 0,0 2,0 2,0 L 200,-111 l -2,0 z"/><path style="fill:#fff;fill-rule:evenodd;stroke:none;display:inline" id="path3312" d="m 210,-108 0,8.999999 2,0 L 212,-105 c 0,-1 1,-1 1,-1 1,0 1,1 1,1 l 0,5.999999 2,0 L 216,-105 c 0,-1 1,-1 1,-1 1,0 1,1 1,1 l 0,5.999999 2,0 L 220,-105 c 0,0 0,-3 -3,-3 0,0 -2,0 -2,2 0,0 0,-2 -2,-2 0,0 -1,0 -1,1 l 0,-1 -2,0 z"/><path style="fill:#fff;fill-rule:evenodd;stroke:none;display:inline" id="path3314" d="m 228,-108 0,8.999999 2,0 L 230,-104 c 0,-2 2,-2 2,-2 0,0 2,0 2,2 l 0,4.999999 2,0 L 236,-104 c 0,-4 -4,-4 -4,-4 0,0 -2,0 -2,1 l 0,-1 -2,0 z"/><path id="path3316" d="m 244,-103 c 0,3.999999 4,3.999999 4,3.999999 0,0 4,0 4,-3.999999 l 0,-1 c 0,-4 -4,-4 -4,-4 0,0 -4,0 -4,4 l 0,1 z m 6,0 c 0,2 -2,2 -2,2 0,0 -2,0 -2,-2 l 0,-1 c 0,-2 2,-2 2,-2 0,0 2,0 2,2 l 0,1 z" style="fill:#fff;fill-rule:evenodd;stroke:none;display:inline"/><path id="path3318" d="m 4.000002,-92.000001 0,11 2,0 0,-3 c 0,1 2,1 2,1 0,0 4,0 4,-4 l 0,-1 c 0,-4 -4,-4 -4,-4 0,0 -2,0 -2,1 l 0,-1 -2,0 z m 2,3 0,3 c 0,1 2,1 2,1 0,0 2,0 2,-2 l 0,-1 c 0,-2 -2,-2 -2,-2 0,0 -2,0 -2,1 z" style="fill:#fff;fill-rule:evenodd;stroke:none;display:inline"/><path style="fill:#fff;fill-rule:evenodd;stroke:none;display:inline" id="path3325" d="m 36.000001,-92.000001 c 0,0 0,9 0,9 l 2,0 0,-5 c 0,-2 2,-2 2,-2 l 2,0 0,-2 -2,0 c 0,0 -1,0 -2,1 0,0 0,-1 0,-1 0,0 -2,0 -2,0 z"/><path style="fill:#fff;fill-rule:evenodd;stroke:none;display:inline" id="path3327" d="m 60.000001,-90.000001 c 0,-2 -4,-2 -4,-2 0,0 -4,0 -4,3 0,3 6,2 6,3 0,0 0,1 -2,1 0,0 -2,0 -2,-1 0,0 -2,1 -2,1 0,2 4,2 4,2 0,0 4,0 4,-3 0,-3 -6,-2 -6,-3 0,0 0,-1 2,-1 0,0 2,0 2,1 l 2,-1 z"/><path style="fill:#fff;fill-rule:evenodd;stroke:none;display:inline" id="path3329" d="m 74.000001,-83.000001 c 0,0 -4,0 -4,-4 l 0,-2 -2,0 0,-2 2,0 0,-3 2,0 0,3 4,0 0,2 -4,0 0,2 c 0,2 2,2 2,2 l 2,0 0,2 -2,0 z"/><path style="fill:#fff;fill-rule:evenodd;stroke:none;display:inline" id="path3331" d="m 84.000001,-92.000001 c 0,0 0,5 0,5 0,0 0,4 4,4 0,0 2,0 2,-1 l 0,1 2,0 0,-9 -2,0 0,5 c 0,2 -2,2 -2,2 0,0 -2,0 -2,-2 l 0,-5 -2,0 z"/><path id="path3333" d="m 98.000001,-92.000001 0,1 3.999999,8 2,0 4,-8 0,-1 -2,0 -3,7 -3,-7 -1.999999,0 z" style="fill:#fff;fill-rule:evenodd;stroke:none;display:inline"/><path style="fill:#fff;fill-rule:evenodd;stroke:none;display:inline" id="path3340" d="m 132,-83.000001 2,0 2,-2 c 0,0 2,2 2,2 l 2,0 0,-1 c 0,0 -3,-3 -3,-3 l 0,-1 3,-3 0,-1 -2,0 -2,2 -2,-2 -2,0 0,1 3,3 0,1 -3,3 0,1 z"/><path id="path3344" d="m 164,-92.000001 8,0 0,2 -5,5 5,0 0,2 -8,0 0,-2 5,-5 -5,0 0,-2 z" style="fill:#fff;fill-rule:evenodd;stroke:none;display:inline"/><path style="fill:#fff;fill-rule:evenodd;stroke:none;display:inline" id="path3536" d="m 22.000002,-157 c 1.33334,-1.33333 0.66667,-0.66666 2,-2 0,0 2,0 2,0 l 0,10 2,0 0,2 -6,0 0,-2 2,0 0,-7 c 0,0 -2,2 -2,2 0,0 0,-3 0,-3 z"/><path style="fill:#fff;fill-rule:evenodd;stroke:none;display:inline" id="path3540" d="m 36.000001,-155 c 0,0 0,-4 4,-4 0,0 4,0 4,4 0,0 0,1 -1,2 0,0 -4,3 -4,4 l 5,0 0,2 -8,0 c 0,0 0,-1 0,-1 0,-2 3.097776,-4.09778 4,-5 1,-1 2,-1 2,-2 0,-2 -2,-2 -2,-2 -2,0 -2,2 -2,2 l -2,0 z"/><path id="path3542" d="m 57.000001,-152 c 1,0 1,1 1,1 0,2 -2,2 -2,2 -2,0 -2,-2 -2,-2 l -2,0 c 0,0 0,4 4,4 0,0 4,0 4,-4 0,-2 -1,-2 -1,-2 0,0 1,0 1,-2 0,-4 -4,-4 -4,-4 -4,0 -4,4 -4,4 l 2,0 c 0,0 0,-2 2,-2 0,0 2,0 2,2 0,0 0,1 -1,1 l -1,0 0,2 1,0 z" style="fill:#fff;fill-rule:evenodd;stroke:none;display:inline"/><path id="path3548" d="m 92.000001,-159 -8,0 0,7 2,0 c 0,0 0,-1 1,-1 l 1,0 c 0,0 2,0 2,2 0,0 0,2 -2,2 0,0 -2,0 -2,-1 l -2,0 c 0,0 0,3 4,3 4,0 4,-4 4,-4 0,0 0,-4 -4,-4 l -2,0 0,-2 6,0 0,-2 z" style="fill:#fff;fill-rule:evenodd;stroke:none;display:inline"/><path style="fill:#fff;fill-rule:evenodd;stroke:none;display:inline" id="path3552" d="m 116,-159 c 0,0 8,0 8,0 l 0,2 c 0,0 -4,4 -4,10 l -2,0 c 0,-6 4,-10 4,-10 l -6,0 0,-2 z"/><path id="path3554" d="m 132,-156 c 0,-3 3,-3 4,-3 1,0 4,0 4,3 l 0,1 c 0,2 -2,2 -2,2 0,0 2,0 2,2 l 0,1 c 0.003,3 -3,3 -4,3 -1,0 -4,0 -4,-3 l 0,-1 c 0,-2 2,-2 2,-2 0,0 -2,0 -2,-2 l 0,-1 z m 2,5 0,1 c 0,1 1,1 1,1 l 2,0 c 0,0 1,0 1,-1 l 0,-1 c 0,0 0,-1 -1,-1 l -1.97554,0 c 0,0 -1.02446,0 -1.02446,1 z m 0,-5 0,1 c 0,1 1,1 1,1 l 2,0 c 0,0 1,0 1,-1 l 0,-1 c 0,-1 -1,-1 -1,-1 l -2,0 c 0,0 -1,0 -1,1 z" style="fill:#fff;fill-rule:evenodd;stroke:none;display:inline"/><path id="path3563" d="m 18.000002,-131 c 0,0 5,-12 5,-12 0,0 2,0 2,0 l 5,12 -2,0 -1,-3 -6,0 -1,3 -2,0 z m 4,-5 4,0 c 0,0 -2,-4 -2,-4 0,0 -2,4 -2,4 z" style="fill:#fff;fill-rule:evenodd;stroke:none;display:inline"/><path id="path3570" d="m 50.000001,-137 c -0.06583,-5.99964 6,-6 6,-6 3,0 6,1 6,4 l -2,0 c 0,0 0,-2 -4,-2 0,0 -4,0 -4,4 0,4 4,4 4,4 4,0 4,-2 4,-2 l 2,0 c 0,3 -3,4 -6,4 0,0 -6,0 -6,-6 z" style="fill:#fff;fill-rule:evenodd;stroke:none;display:inline"/><path style="fill:#fff;fill-rule:evenodd;stroke:none;display:inline" id="path3572" d="m 78.000001,-137 c 0,6 -6,6 -6,6 l -6,0 0,-12 6,0 c 0,0 5.971812,7e-5 6,6 z m -2,0 c 0,-4 -4,-4 -4,-4 l -4,0 0,8 4,0 c 4,0 4,-4 4,-4 z"/><path id="path3576" d="m 98.000001,-131 c 0,0 0,-12 0,-12 l 9.999999,0 0,2 -8,0 0,3 6,0 0,2 -6,0 0,5 -1.999999,0 z" style="fill:#fff;fill-rule:evenodd;stroke:none;display:inline"/><path style="fill:#fff;fill-rule:evenodd;stroke:none;display:inline" id="path3578" d="m 114,-137 c 0,-6 6,-6 6,-6 0,0 6,0 6,4 l -2,0 c 0,-2 -4,-2 -4,-2 0,0 -4,0 -4,4 0,4 4,4 4,4 l 2,0 c 2,0 2,-2 2,-2 l -4,0 0,-2 c 0,0 6,0 6,0 l 0,2 c 0,0 0,4 -4,4 0,0 -2,0 -2,0 -6,0 -6,-6 -6,-6 z"/><path style="fill:#fff;fill-rule:evenodd;stroke:none;display:inline" id="path3580" d="m 130,-143 0,12 2,0 0,-5 8,0 0,5 2,0 0,-12 -2,0 0,5 -8,0 0,-5 -2,0 z"/><path style="fill:#fff;fill-rule:evenodd;stroke:none;display:inline" id="path3582" d="m 150,-143 0,12 2,0 0,-12 -2,0 z"/><path id="path3584" d="m 168,-143 0,2 2,0 0,8 c 0,2 -2,2 -2,2 0,0 -2,0 -2,-2 l -2,0 c 0,4 3,4 4,4 1,0 4,0 4,-4 l 0,-10 -4,0 z" style="fill:#fff;fill-rule:evenodd;stroke:none;display:inline"/><path style="fill:#fff;fill-rule:evenodd;stroke:none;display:inline" id="path3586" d="m 178,-143 0,12 2,0 0,-2 c 0,0 2,-2 2,-2 0,0 4,4 4,4 l 2,0 c 0,0 0,-1 0,-1 0,0 -5,-5 -5,-5 l 5,-5 0,-1 -2,0 -6,6 0,-6 -2,0 z"/><path id="path3588" d="m 196,-143 0,12 8,0 0,-2 -6,0 0,-10 -2,0 z" style="fill:#fff;fill-rule:evenodd;stroke:none;display:inline"/><path style="fill:#fff;fill-rule:evenodd;stroke:none;display:inline" id="path3590" d="m 210,-143 0,12 2,0 0,-8 4,8 4,-8 0,8 2,0 0,-12 -2,0 -4,8 -4,-8 -2,0 z"/><path style="fill:#fff;fill-rule:evenodd;stroke:none;display:inline" id="path3592" d="m 228,-143 0,12 2,0 0,-9 6,9 2,0 0,-12 -2,0 0,8 c 0,0 -5,-8 -5,-8 l -3,0 z"/><path id="path3594" d="m 242,-137 c 0,1 0,6 6,6 6,0 6,-5 6,-6 0,-1 0,-6 -6,-6 -6,0 -6,5 -6,6 z m 2,0 c 0,-4 4,-4 4,-4 0,0 4,0 4,4 0,4 -4,4 -4,4 0,0 -4,0 -4,-4 z" style="fill:#fff;fill-rule:evenodd;stroke:none;display:inline"/><path id="path3599" d="m 2.000002,-127 0,12 2,0 0,-4 4,0 c 4,0 4,-4 4,-4 0,-4 -4,-4 -4,-4 l -6,0 z m 2,2 0,4 4,0 c 2,0 1.93283,-1.03898 2,-2 0,-2 -2,-2 -2,-2 l -4,0 z" style="fill:#fff;fill-rule:evenodd;stroke:none;display:inline"/><path style="fill:#fff;fill-rule:evenodd;stroke:none;display:inline" id="path3608" d="m 50.000001,-123 c 0,-4 4,-4 4,-4 l 2,0 c 4,0 4,4 4,4 l -2,0 c 0,-2 -2,-2 -2,-2 l -2,0 c -1.53125,0 -2,1 -2,2 0,0 0,1 1,1 l 3,0 c 4,0 4,2 4,3 0,4 -4,4 -4,4 l -2,0 c -4,0 -4,-4 -4,-4 l 2,0 c 0,2 2,2 2,2 0,0 2,0 2,0 2,0 2,-1.5 2,-2 0,0 0,-1 -1,-1 l -3,0 c -4,0 -4,-2 -4,-3 z"/><path style="fill:#fff;fill-rule:evenodd;stroke:none;display:inline" id="path3610" d="m 66.000001,-127 10,0 0,2 -4,0 0,10 -2,0 0,-10 -4,0 0,-2 z"/><path id="path3612" d="m 82.000001,-121 0,-6 2,0 0,7 c 0,2 1,3 2,3 0,0 2,0 2,0 1,0 2,-1 2,-3 l 0,-7 2,0 0,6 c 0,6 -3,6 -4,6 0,0 -2,0 -2,0 -1,0 -4,0 -4,-6 z" style="fill:#fff;fill-rule:evenodd;stroke:none;display:inline"/><path style="fill:#fff;fill-rule:evenodd;stroke:none;display:inline" id="path3614" d="m 98.000001,-126 0,-1 1.999999,0 4,9 4,-9 2,0 0,1 -5,11 -2,0 -4.999999,-11 z"/><path id="path3621" d="m 132,-115 2,0 3,-5 3,5 2,0 0,-1 -3,-5 3,-5 0,-1 -2,0 -3,5 -3,-5 -2,0 0,1 3,5 -3,5 0,1 z" style="fill:#fff;fill-rule:evenodd;stroke:none;display:inline"/><path style="fill:#fff;fill-rule:evenodd;stroke:none;display:inline" id="path3623" d="m 152,-115 2,0 0,-4 4,-7 0,-1 c 0,0 -2,0 -2,0 0,0 -3,5 -3,5 0,0 -3,-5 -3,-5 l -2,0 0,1 c 0,0 4,7 4,7 l 0,4 z"/><path id="path3625" d="m 172,-124 0,-3 -10,0 0,2 8,0 -8,8 0,2 10,0 0,-2 -7,0 7,-7 z" style="fill:#fff;fill-rule:evenodd;stroke:none;display:inline"/><path style="fill:#fff;fill-rule:evenodd;stroke:none;display:inline" id="path3908" d="m 6.000002,-191 6,0 0,2 -4,0 0,10 4,0 0,2 -6,0 0,-14 z"/><path id="path3910" d="m 26.000002,-191 -6,0 0,2 4,0 0,10 -4,0 0,2 6,0 0,-14 z" style="fill:#fff;fill-rule:evenodd;stroke:none;display:inline"/><path style="fill:#fff;fill-rule:evenodd;stroke:none;display:inline" id="path3912" d="m 38.000001,-185 2,-2 7,0 0,3 -3,0 0,7 -6,0 0,-8 z"/><path id="path3914" d="m 38.000001,-185 c 0,-1 1,-2 2,-2 l 8,0 0,3 -4,0 0,7 -6,0 0,-8 z" style="fill:#fff;fill-rule:evenodd;stroke:none;display:inline"/><path style="fill:#fff;fill-rule:evenodd;stroke:none;display:inline" id="path3916" d="m 74.000001,-185 c 0,-1 -1,-2 -2,-2 l -8,0 0,3 4,0 0,7 6,0 0,-8 z"/><path id="path3918" d="m 50.000001,-187 12,0 0,3 -12,0 0,-3 0,0 z" style="fill:#fff;fill-rule:evenodd;stroke:none;display:inline"/><path style="fill:#fff;fill-rule:evenodd;stroke:none;display:inline" id="path3920" d="m 86.000001,-191 6,0 0,14 -6,0 0,-14 z"/><path id="path3922" d="m 116,-191 6,0 0,14 -6,0 0,-14 z" style="fill:#fff;fill-rule:evenodd;stroke:none;display:inline"/><path style="fill:#fff;fill-rule:evenodd;stroke:none;display:inline" id="path3924" d="m 134,-183 c 0,1 1,2 2,2 l 7,0 0,-3 -3,0 0,-7 -6,0 0,8 z"/><path id="path3926" d="m 170,-183 c 0,1 -1,2 -2,2 l -7,0 0,-3 3,0 0,-7 6,0 0,8 z" style="fill:#fff;fill-rule:evenodd;stroke:none;display:inline"/><path style="fill:#fff;fill-rule:evenodd;stroke:none;display:inline" id="path3928" d="m 146,-181 12,0 0,-3 -12,0 0,3 0,0 z"/><path style="fill:#fff;fill-rule:evenodd;stroke:none;display:inline" id="path3930" d="m 196,-185 0,2 4,0 0,-4 -2,0 0,2 -2,0 z"/><path style="fill:#fff;fill-rule:evenodd;stroke:none;display:inline" id="path3932" d="m 212,-186 c 0,-1 1,-2 2,-2 l 10,0 0,7 -10,0 c -1,0 -2,-1 -2,-2 l 0,-3 z"/><path id="path3934" d="m 252,-186 c 0,-1 -1,-2 -2,-2 l -10,0 0,7 10,0 c 1,0 2,-1 2,-2 l 0,-3 z" style="fill:#fff;fill-rule:evenodd;stroke:none;display:inline"/><path style="fill:#fff;fill-rule:evenodd;stroke:none;display:inline" id="path3936" d="m 226,-188 12,0 0,7 -12,0 0,-7 z"/><path id="path3938" d="m 24.000002,-175 0,6 c 0,2 -1,2 -1,2 -1,0 -1,-2 -1,-2 l 0,-6 c 0,0 2,0 2,0 z m -2,12 c 0,0 0,-2 0,-2 0,0 2,0 2,0 0,0 0,2 0,2 0,0 -2,0 -2,0 z" style="fill:#fff;fill-rule:evenodd;stroke:none;display:inline"/><path id="path3943" d="m 38.000001,-175 2,0 0,5 -2,0 0,-5 z m 6,0 0,5 -2,0 0,-5 2,0 z" style="fill:#fff;fill-rule:evenodd;stroke:none;display:inline"/><path style="fill:#fff;fill-rule:evenodd;stroke:none;display:inline" id="path3948" d="m 54.000001,-174 0,2.02564 -2,0 0,2 2,0 0,2 -2,0 0,2 2,0 0,1.97436 2,0 0,-1.97436 2,0 0,1.97436 2,0 0,-1.97436 2,0 0,-2 -2,0 0,-2 2,0 0,-2 -2,-0.0128 0,-2.01283 -2,0 0,2.02564 -2,0 0,-2.02564 -2,0 z m 2,4.02564 2,0 0,2 -2,0 0,-2 z"/><g id="g3989" transform="translate(-15.999998,-268.36218)" style="stroke:none;display:inline"><path id="path3962" d="m 108,93.362183 0,1 -6,11.999997 -2,0 0,-1 6,-11.999997 2,0 z" style="fill:#fff;fill-rule:evenodd;stroke:none"/><path style="fill:#fff;fill-rule:evenodd;stroke:none" id="path3775" d="m 108,100.36218 c 3,0 3,3 3,3 0,3 -3,3 -3,3 -3,0 -3,-3 -3,-3 0,-3 3,-3 3,-3 z m 0,2 c 1,0 1,1 1,1 0,1 -1,1 -1,1 -1,0 -1,-1 -1,-1 0,-1 1,-1 1,-1 z"/><path id="path3556" d="m 100,93.36218 c 3,0 3,3 3,3 0,3 -3,3 -3,3 -3,0 -3,-3 -3,-3 0,-3 3,-3 3,-3 z m 0,2 c 1,0 1,1 1,1 0,1 -1,1 -1,1 -1,0 -1,-1 -1,-1 0,-1 1,-1 1,-1 z" style="fill:#fff;fill-rule:evenodd;stroke:none"/></g><path style="fill:#fff;fill-rule:evenodd;stroke:none;display:inline" id="path3973" d="m 120,-175 2,0 0,5 -2,0 0,-5 z"/><path style="fill:#fff;fill-rule:evenodd;stroke:none;display:inline" id="path3979" d="m 164,-174 2,2 0,-3 2,0 0,3 2,-2 2,0 0,1 -3,3 3,3 0,1 -2,0 -2,-2 0,3 -2,0 0,-3 -2,2 -2,0 0,-1 3,-3 -3,-3 0,-1 2,0 z"/><path style="fill:#fff;fill-rule:evenodd;stroke:none;display:inline" id="path3981" d="m 178,-169 4,0 0,-4 2,0 0,4 4,0 0,1.99999 -4,0 0,4 -2,0 0,-4 -4,0 0,-1.99999 z"/><path style="fill:#fff;fill-rule:evenodd;stroke:none;display:inline" id="path3983" d="m 198,-165.99999 2,0 0,1.99999 -1,3 -1,0 0,-4.99999 z"/><path style="fill:#fff;fill-rule:evenodd;stroke:none;display:inline" id="path3985" d="m 212,-169 8,0 0,2 -8,0 0,-2 z"/><path style="fill:#fff;fill-rule:evenodd;stroke:none;display:inline" id="path3987" d="m 232,-166 0,2 2,0 0,-2 -2,0 z"/><path id="path3994" d="m 252,-175 0,1 -6,12 -2,0 0,-1 6,-12 2,0 z" style="fill:#fff;fill-rule:evenodd;stroke:none;display:inline"/><g id="g4002" transform="translate(-15.999998,-268.36218)" style="stroke:none;display:inline"><path id="path3996" d="m 182,112.36218 2,0 0,2 -2,0 0,-2 z" style="fill:#fff;fill-rule:evenodd;stroke:none"/><path id="path3998" d="m 182,118.36218 2,0 0,2 -2,0 0,-2 z" style="fill:#fff;fill-rule:evenodd;stroke:none"/></g><g style="stroke:none;display:inline" id="g3627" transform="translate(-15.999998,-268.36218)"><path style="fill:#fff;fill-rule:evenodd;stroke:none" id="path4000" d="m 198,112.36218 2,0 0,2 -2,0 0,-2 z"/><path style="fill:#fff;fill-rule:evenodd;stroke:none" id="path4006" d="m 198,118.36219 2,0 c 0,0 0,1.99999 0,1.99999 l -1,3 -1,0 0,-4.99999 z"/></g><path style="fill:#fff;fill-rule:evenodd;stroke:none;display:inline" id="path4008" d="m 206,-157 0,2 -7,3 7,3 0,2 -1,0 -9,-4 0,-2 9,-4 1,0 z"/><path id="path4010" d="m 226,-157 0,2 7,3 -7,3 0,2 1,0 9,-4 0,-2 -9,-4 -1,0 z" style="fill:#fff;fill-rule:evenodd;stroke:none;display:inline"/><g id="g4016" transform="translate(-15.999998,-268.36218)" style="stroke:none;display:inline"><path id="path4012" d="m 228,113.36218 0,2 8,0 0,-2 -8,0 z" style="fill:#fff;fill-rule:evenodd;stroke:none"/><path style="fill:#fff;fill-rule:evenodd;stroke:none" id="path4014" d="m 228,117.36218 0,2 8,0 0,-2 -8,0 z"/></g><g style="stroke:none;display:inline" id="g3641" transform="translate(-15.999998,-268.36218)"><path style="fill:#fff;fill-rule:evenodd;stroke:none" id="path4020" d="m 264,119.36218 c 0,0 -2,0 -2,0 0,0 0,2 0,2 0,0 2,0 2,0 0,0 0,-2 0,-2 z"/><path id="path4022" d="m 262,117.36218 c 1,1 2,0 2,0 0,-2 4,0 4,-4 0,-4 -4,-4 -4,-4 -4,0 -4,4 -4,4 l 2,0 c 0,0 0,-2 2,-2 0,0 2,0 2,2 0,2 -4,0 -4,4 z" style="fill:#fff;fill-rule:evenodd;stroke:none"/></g><path id="path2586" d="m 182,-127 6,0 0,2 -4,0 0,10 4,0 0,2 -6,0 0,-14 z" style="fill:#fff;fill-rule:evenodd;stroke:none;display:inline"/><path style="fill:#fff;fill-rule:evenodd;stroke:none;display:inline" id="path2588" d="m 218,-127 -6,0 0,2 4,0 0,10 -4,0 0,2 6,0 0,-14 z"/><path style="fill:#fff;fill-rule:evenodd;stroke:none;display:inline" id="path2590" d="m 196,-127 0,1.00001 6,11.99999 2,0 0,-1 -6,-12 -2,0 z"/><path style="fill:#fff;fill-rule:evenodd;stroke:none;display:inline" id="path2592" d="m 227,-122 2,0 3,-3 3,3 2,0 0,-1 -4,-4 -2,0 -4,4 0,1 z"/><path style="fill:#fff;fill-rule:evenodd;stroke:none;display:inline" id="path3364" d="m 242,-115 10,0 0,2 -10,0 0,-2 z"/><path style="fill:#fff;fill-rule:evenodd;stroke:none;display:inline" id="path3366" d="m 8.000002,-111 0,6 -2,0 0,-6 2,0 z"/><path style="fill:#fff;fill-rule:evenodd;stroke:none;display:inline" id="path3372" d="m 198,-95.000001 2,0 0,14 -2,0 0,-14 z"/><path style="fill:#fff;fill-rule:evenodd;stroke:none;display:inline" id="path3374" d="m 230,-95.000001 2,0 0,5 -2,0 0,-5 z m 6,0 0,5 -2,0 0,-5 2,0 z"/><path style="fill:#fff;fill-rule:evenodd;stroke:none;display:inline" id="path3381" d="m 15.000002,-79.000001 0,4 -7,0 0,4 7,0 0,4 -7,0 c -4,0 -4,-4 -4,-4 l 0,-4 c 0,0 0,-4 4,-4 l 7,0 z"/><path style="fill:#fff;fill-rule:evenodd;stroke:none;display:inline" id="path3385" d="m 18.000002,-79.000001 12,0 0,4 -12,0 0,-4 z"/><path id="path3387" d="m 18.000002,-71.000001 12,0 0,4 -12,0 0,-4 z" style="fill:#fff;fill-rule:evenodd;stroke:none;display:inline"/><path style="fill:#fff;fill-rule:evenodd;stroke:none;display:inline" id="path3389" d="m 52.000001,-79.000001 8,0 0,14 -8,0 0,-14 z"/><path style="fill:#fff;fill-rule:evenodd;stroke:none;display:inline" id="path3391" d="m 66.000001,-75.000001 0,1 2,0 0,-1 -2,0 z"/><path id="path3393" d="m 66.000001,-73.000001 0,1 2,0 0,-1 -2,0 z" style="fill:#fff;fill-rule:evenodd;stroke:none;display:inline"/><path style="fill:#fff;fill-rule:evenodd;stroke:none;display:inline" id="path3395" d="m 66.000001,-78.000001 3,0 1,1 0,7 -1,1 -3,0 0,-1 2,0 0,-7 -2,0 0,-1 z"/><path id="path3397" d="m 70.000001,-78.000001 3,0 1,1 0,7 -1,1 -3,0 0,-9 z m 1,2 2,0 0,5 -2,0 0,-5 z" style="fill:#fff;fill-rule:evenodd;stroke:none;display:inline"/><path style="fill:#fff;fill-rule:evenodd;stroke:none;display:inline" id="path3406" d="m 78.000001,-74.000001 -1,0 0,-4 1,0 0,4 z m 0,1 -1,0 0,4 1,0 0,-4 z"/><path style="fill:#fff;fill-rule:evenodd;stroke:none;display:inline" id="path3408" d="m 75.000001,-74.000001 2,0 0,1 -2,0 0,-1 z"/><path style="fill:#fff;fill-rule:evenodd;stroke:none;display:inline" id="path3412" d="m 86.000001,-74.000001 2,0 0,2 -2,0 0,-2 z"/><path style="fill:#fff;fill-rule:evenodd;stroke:none;display:inline" id="path3414" d="m 98.000001,-78.000001 0,2 c 0,0 5.999999,10 5.999999,10 0,0 6,-10 6,-10 l 0,-2 -11.999999,0 z"/><g id="g3427" transform="translate(-15.999998,-268.36218)" style="stroke:none;display:inline"><path style="fill:#fff;fill-rule:evenodd;stroke:none" id="path3420" d="m 194,190.36218 11,0 0,12 -11,0 0,-12 z m 2,2 7,0 0,8 -7,0 0,-8 z"/><path style="opacity:.5;fill:#fff;fill-rule:evenodd;stroke:none" id="path3424" d="m 196,192.36218 7,0 0,8 -7,0 0,-8 z"/></g><path style="fill:#fff;fill-rule:evenodd;stroke:none;display:inline" id="path3433" d="m 230,-74.000001 0,2 2,0 0,-2 -2,0 z"/><path id="path3435" d="m 248,-74.000001 0,2 2,0 0,-2 -2,0 z" style="fill:#fff;fill-rule:evenodd;stroke:none;display:inline"/><path id="path3800" d="m 14.000002,-131 0,2 -6,0 c 0,0 -6,0 -6,-6 l 0,-1 c 0,-6 6,-6 6,-6 l 1,0 c 5,0 5,5 5,5 l 0,1 c 0,3 -4,3 -4,3 l -1,0 c -3,0 -3,-1 -3,-1 0,-2 0,-4 3,-4 1,0 1,1 1,1 l 0,3 c 0,0 2,0 2,-1 l 0,-2 c 0,0 0,-3 -4,-3 0,0 -4,0 -4,4 l 0,1 c 0,4 4,4 4,4 l 6,0 z m -5,-6 0,3 -1,0 c -1,0 -1,-1 -1,-1 0,-2 0.54508,-1.97891 2,-2 z" style="fill:#fff;fill-rule:evenodd;stroke:none;display:inline"/><g style="stroke:none;display:inline" id="g3780" transform="translate(-17.999998,-268.375)"><path id="path3957" d="m 84,97.375 c 0,1 0,4 4,4 l 3,-0.0128 c 0,0 1,0 1,1 l 0,1 c 0,0 0,0.51071 -1,1 -0.999999,0.48929 -4,0.50508 -5,0 l -2,-0.98718 0,2 2,0.98718 c 1,0.53664 5,0.55243 6,0 1,-0.56398 2,-1.98718 2,-2.98718 0,-1 0,-4 -4,-4 0,0 -3,-0.01282 -3,-0.01282 0,0 -1,-0.30552 -1,-1 l 0,-1 c 0,-0.573842 0.581823,-0.820646 1,-1 0.404807,-0.17362 4,-0.503373 5,0 0.993741,0.500222 2,1.012817 2,1.012817 l 0,-2 c 0,0 -0.993711,-0.523428 -2,-1.012817 -1,-0.48633 -5,-0.516691 -6,0 -1.006514,0.52004 -2,2.0128 -2,3.0128 z" style="fill:#fff;fill-rule:evenodd;stroke:none;display:inline"/><path id="path3003" d="m 88,93.362183 2,0 0,13.999997 -2,0 0,-13.999997 z" style="fill:#fff;fill-rule:evenodd;stroke:none"/></g><path style="fill:#fff;fill-rule:evenodd;stroke:none;display:inline" id="path3568" d="m 36.000001,-133 4,0 c 0,0 2,0 2,-1 l 0,-1 c 0,-1 -1,-1 -1,-1 l -5,0 0,3 z m -2,2 0,-12 6,0 c 0,0 4,0 4,3 l 0,0 c 0,0 0,3 -2,3 2,0 2,3 2,3 l 0,0 c 0,3 -4,3 -4,3 l -6,0 z m 2,-10 0,3 5,0 c 0,0 1,0 1,-1 l 0,-1 c 0,-1 -2,-1 -2,-1 l -4,0 z"/><path style="fill:#fff;fill-rule:evenodd;stroke:none;display:inline" id="path2687" d="m 92.000001,-104 c 0,-4 -4,-4 -4,-4 0,0 -4,0 -4,4 l 0,1 c 0,3.999999 4,3.999999 4,3.999999 0,0 4,0 4,-2.999999 l -2,0 c 0,1 -2,1 -2,1 0,0 -2,0 -2,-2 l 6,0 c 0,0 0,-1 0,-1 z m -6,0 c 0,-2 2,-2 2,-2 0,0 2,0 2,2 l -4,0 z"/><path id="path2689" d="m 116,-104 c 0,-4 4,-4 4,-4 0,0 2,0 2,1 l 0,-1 2,0 0,7 c 0,0 0,3.999999 -4,3.999999 0,0 -1,0 -1,0 0,0 -3,0 -3,-2.999999 l 2,0 c 0,0.999999 1,0.999999 1,0.999999 0,0 1,0 1,0 0,0 2,0 2,-1.999999 0,1 -2,1 -2,1 0,0 -4,0 -4,-4 z m 6,0 0,0 c 0,-2 -2,-2 -2,-2 0,0 -2,0 -2,2 0,0 0,1.32132 1.07398,1.81599 0.24734,0.11393 0.55164,0.18401 0.92602,0.18401 2,0 2,-2 2,-2 z" style="fill:#fff;fill-rule:evenodd;stroke:none;display:inline"/><path id="path2693" d="m 33.000001,-79.000001 0,4 7,0 0,4 -7,0 0,4 7,0 c 4,0 4,-4 4,-4 l 0,-4 c 0,0 0,-4 -4,-4 l -7,0 z" style="fill:#fff;fill-rule:evenodd;stroke:none;display:inline"/><path id="path2695" d="m 75.000001,-74.000001 -1,0 0,-4 1,0 0,4 z m 0,1 -1,0 0,4 1,0 0,-4 z" style="fill:#fff;fill-rule:evenodd;stroke:none;display:inline"/><path id="path2697" d="m 126,-66.000001 0,-2 c 0,0 -6,-10 -6,-10 0,0 -6,10 -6,10 l 0,2 12,0 z" style="fill:#fff;fill-rule:evenodd;stroke:none;display:inline"/><path style="fill:#fff;fill-rule:evenodd;stroke:none;display:inline" id="path2699" d="m 142,-78.000001 -2,0 c 0,0 -10,6 -10,6 0,0 10,6 10,6 l 2,0 0,-12 z"/><path id="path2701" d="m 210,-66.000001 2,0 c 0,0 10,-6 10,-6 0,0 -10,-6 -10,-6 l -2,0 0,12 z" style="fill:#fff;fill-rule:evenodd;stroke:none;display:inline"/><path id="path6567" d="m 82.000001,-131 c 0,0 0,-12 0,-12 l 10,0 0,2 -8,0 0,3 6,0 0,2 -6,0 0,3 8,0 0,2 -10,0 z" style="fill:#fff;fill-rule:evenodd;stroke:none;display:inline"/><path style="fill:#fff;fill-rule:evenodd;stroke:none;display:inline" id="path2717" d="m 8.000002,-159 c -2,0 -4,1 -4,6 0,5 2,6 4,6 2,0 4,-1 4,-6 0,-5 -2,-6 -4,-6 z m -2,6 c 0,3 1,4 2,4 1,0 2,-1 2,-4 0,-3 -1,-4 -2,-4 -1,0 -2,1 -2,4 z"/><path style="fill:#fff;fill-rule:evenodd;stroke:none;display:inline" id="path3546" d="m 72.000001,-159 c 0,0 -4,8 -4,8 0,0 0,2 0,2 l 4,0 0,2 2,0 0,-2 2,0 0,-2 -2,0 0,-8 -2,0 z m 0,8 0,-4 -2,4 2,0 z"/><path style="fill:#fff;fill-rule:evenodd;stroke:none;display:inline" id="path3502" d="m 108,-156 c 0,-3 -4,-3 -4,-3 -4,0 -4,4 -4,4 l 0,4 c 0,0 0,4 4,4 4,0 4,-4 4,-4 0,0 0,-4 -4,-4 0,0 -2,0 -2,1 0,0 0,-3 2,-3 0,0 2,0 2,1 0,0 2,0 2,0 z m -4,3 c 2,0 2,2 2,2 0,2 -2,2 -2,2 -2,0 -2,-2 -2,-2 0,-2 2,-2 2,-2 z"/><path id="path3508" d="m 148,-150 c 0,3 4,3 4,3 4,0 4,-4 4,-4 l 0,-4 c 0,0 0,-4 -4,-4 -4,0 -4,4 -4,4 0,0 0,4 4,4 0,0 2,0 2,-1 0,0 0,3 -2,3 0,0 -2,0 -2,-1 0,0 -2,0 -2,0 z m 4,-3 c -2,0 -2,-2 -2,-2 0,-2 2,-2 2,-2 2,0 2,2 2,2 0,2 -2,2 -2,2 z" style="fill:#fff;fill-rule:evenodd;stroke:none;display:inline"/><path style="fill:#fff;fill-rule:evenodd;stroke:none;display:inline" id="path3514" d="m 18.000002,-121 c 0,0 0,6 5,6 0,0 0,2 4,2 0,0 0,-1 0,-1 -2,0 -2,-1 -2,-1 5,0 5,-6 5,-6 0,-1 0,-6 -6,-6 -6,0 -6,5 -6,6 z m 2,0 c 0,-4 4,-4 4,-4 0,0 4,0 4,4 0,4 -4,4 -4,4 0,0 -4,0 -4,-4 z"/><path style="fill:#fff;fill-rule:evenodd;stroke:none;display:inline" id="path3516" d="m 34.000001,-127 0,12 2,0 0,-4 2,0 4,4 2,0 0,-1 -3,-3 c 3,0 3,-4 3,-4 0,-4 -4,-4 -4,-4 l -6,0 z m 2,2 0,4 4,0 c 2,0 1.932832,-1.03898 2,-2 0,-2 -2,-2 -2,-2 l -4,0 z"/><path id="path3530" d="m 118,-86.000001 -1,-2 -2,-4 -2,0 4,9 2,0 1,-2 1,2 2,0 4,-9 -2,0 -2,4 -1,2 -1,-1 0,-4 -2,0 0,4 -1,1 z" style="fill:#fff;fill-rule:evenodd;stroke:none;display:inline"/><path id="path3277" d="m 24.000002,-99.000001 c 0,0 4,0 4,0 l 0,-4.999999 c 0,-4 -4,-4 -4,-4 0,0 -4,0 -4,3 0,0 2,0 2,0 0,0 0,-1 1,-1 0,0 2,0 2,0 0,0 1,0 1,1 0,0 -2,0 -2,0 -4,0 -4,3 -4,3 0,0 0,0 0,0 0,0 0,2.999999 4,2.999999 z m 2,-1.999999 -3,0 c -1,0 -1,-1 -1,-1 0,0 0,-1 1,-1 l 3,0 c 0,0 0,2 0,2 z" style="fill:#fff;fill-rule:evenodd;stroke:none;display:inline"/><g style="stroke:none;display:inline" id="g3564" transform="translate(-15.999998,-268.36218)"><path id="path3971" d="m 119,103.36218 c 0,0 5,0 5,-4.999997 l 2,0 c 0,1 0,0.999997 0,0.999997 0,0 0,6 -6,6 0,0 -2,0 -2,0 -4,0 -4,-4 -4,-4 0,-4 3,-4 3,-4 0,0 -1,0 -1,-2 0,0 0,-2 4,-2 0,0 4,0 4,2 0,0 0,3 -2,3 -2,0 -6,-1 -6,3 0,2 2,2 2,2 0,0 1,0 1,0 z m 1,-8 c 0,0 2,0 2,1 0,0 0,1 -2,1 0,0 -2,0 -2,-1 0,0 0,-1 2,-1 z" style="fill:#fff;fill-rule:evenodd;stroke:none"/><path style="fill:#fff;fill-rule:evenodd;stroke:none" id="path3562" d="m 101,37 8,8 1,0 0,-1 -7,-7 -2,0 z" transform="translate(16,60.36218)"/></g><path style="fill:#fff;fill-rule:evenodd;stroke:none;display:inline" id="path2709" d="m 28.000002,-92.000001 0,11 -2,0 0,-3 c 0,1 -2,1 -2,1 0,0 -4,0 -4,-4 l 0,-1 c 0,-4 4,-4 4,-4 0,0 2,0 2,1 l 0,-1 2,0 z m -2,3 0,3 c 0,1 -2,1 -2,1 0,0 -2,0 -2,-2 l 0,-1 c 0,-2 2,-2 2,-2 0,0 2,0 2,1 z"/><path style="fill:#fff;fill-rule:evenodd;stroke:none;display:inline" id="path3606" d="m 76.000001,-111 0,11.999999 c 0,0 -4,0 -4,0 0,0 -4,0 -4,-3.999999 l 0,-1 c 0,0 0,-4 4,-4 0,0 2,0 2,0 l 0,-3 2,0 z m -6,7 0,1 c 0,2 2,2 2,2 0,0 2,0 2,0 l 0,-5 c 0,0 -2,0 -2,0 0,0 -2,0 -2,2 z"/><path id="path3403" d="m 140,-175 2,0 0,1 -2,1 c 0,0 -2,2 -2,4 l 0,2 c 0,2 2,4 2,4 l 2,1 0,1 -2,0 -2,-1 c 0,0 -2,-2 -2,-4 l 0,-4 c 0,-2 2,-4 2,-4 l 2,-1 z" style="fill:#fff;fill-rule:evenodd;stroke:none;display:inline"/><path style="fill:#fff;fill-rule:evenodd;stroke:none;display:inline" id="path3409" d="m 148,-175 -2,0 0,1 2,1 c 0,0 2,2 2,4 l 0,2 c 0,2 -2,4 -2,4 l -2,1 0,1 2,0 2,-1 c 0,0 2,-2 2,-4 l 0,-4 c 0,-2 -2,-4 -2,-4 l -2,-1 z"/><path id="path3368" d="m 190,-95.000001 0,2 -2,0 c -1,0 -2,2 -2,4 l 0,2 c 0,2 1,4 2,4 l 2,0 0,2 -2,0 c -1,0 -2,-1 -2,-1 0,0 -2,-2 -2,-4 l 0,-1 -2,0 0,-2 2,0 0,-1 c 0,-2 2,-4 2,-4 0,0 1,-1 2,-1 l 2,0 z" style="fill:#fff;fill-rule:evenodd;stroke:none;display:inline"/><path style="fill:#fff;fill-rule:evenodd;stroke:none;display:inline" id="path3411" d="m 210,-95.000001 0,2 2,0 c 1,0 2,2 2,4 l 0,2 c 0,2 -1,4 -2,4 l -2,0 0,2 2,0 c 1,0 2,-1 2,-1 0,0 2,-2 2,-4 l 0,-1 2,0 0,-2 -2,0 0,-1 c 0,-2 -2,-4 -2,-4 0,0 -1,-1 -2,-1 l -2,0 z"/><path id="path3379" d="m 252,-89.000001 -5,0 3,-3 0,-1 -2,0 -4,4 0,2 4,4 2,0 0,-1 -3,-3 5,0 0,-2 z" style="fill:#fff;fill-rule:evenodd;stroke:none;display:inline"/><path style="fill:#fff;fill-rule:evenodd;stroke:none;display:inline" id="path3047" d="m 146,-92.000001 4,8 c 0,1 -1,1 -1,1 l -3,0 0,2 4,0 c 0,0 2,0 2,-3 l 4,-8 -2,0 -3,6 -3,-6 -2,0 z"/><path style="fill:#fff;fill-rule:evenodd;stroke:none;display:inline" id="path3049" d="m 116,-115 -2,-12 2,0 2,8 2,-6 2,6 2,-8 2,0 -2,12 -2,0 -2,-4 -2,4 -2,0 z"/><g id="g4842" transform="translate(92.128001,-241.41818)" style="stroke:#666;stroke-width:.5;stroke-miterlimit:4;stroke-opacity:1;stroke-dasharray:none;display:inline"><path style="fill:#fff;fill-rule:evenodd;stroke:#666;stroke-width:.5;stroke-linecap:butt;stroke-linejoin:miter;stroke-miterlimit:4;stroke-opacity:1;stroke-dasharray:none;display:inline" id="path4592" d="m -56.128001,258.41818 0,12 c 0,0 4,0 4,0 0,0 4,0 4,-4 l 0,-1 c 0,0 0,-4 -4,-4 0,0 -2,0 -2,0 l 0,-3 -2,0 z m 6,7 0,1 c 0,2 -2,2 -2,2 0,0 -2,0 -2,0 l 0,-5 c 0,0 2,0 2,0 0,0 2,0 2,2 z"/><path id="path4594" d="m -36.128001,261.41818 c 0,0 -4,0 -4,4 0,0 0,1 0,1 0,4 4,4 4,4 0,0 3.994018,0 3.994018,-3 l -2,0 c 0,1 -1.994018,1 -1.994018,1 0,0 -2,0 -2,-2 l 0,-1 c 0,-2 1.994018,-2 1.994018,-2 0,0 2,0 2,1 l 2,0 c 0,-3 -3.994018,-3 -3.994018,-3 z" style="fill:#fff;fill-rule:evenodd;stroke:#666;stroke-width:.5;stroke-linecap:butt;stroke-linejoin:miter;stroke-miterlimit:4;stroke-opacity:1;stroke-dasharray:none;display:inline"/><path id="path4596" d="m 7.8719993,262.41818 2,0 c 0,-4 3.9999997,-4 3.9999997,-4 l 2,0 0,2 -2,0 c 0,0 -2,0 -2,2 l 2,0 0,2 -2,0 0,6 -1.9999997,0 0,-6 -2,0 0,-2 z" style="fill:#fff;fill-rule:evenodd;stroke:#666;stroke-width:.5;stroke-linecap:butt;stroke-linejoin:miter;stroke-miterlimit:4;stroke-opacity:1;stroke-dasharray:none;display:inline"/><path id="path4598" d="m 39.871999,258.41818 0,12 2,0 0,-5 c 0,-2 2,-2 2,-2 0,0 2,0 2,2 l 0,5 2,0 0,-5 c 0,-4 -4,-4 -4,-4 0,0 -2,0 -2,1 l 0,-4 -2,0 z" style="fill:#fff;fill-rule:evenodd;stroke:#666;stroke-width:.5;stroke-linecap:butt;stroke-linejoin:miter;stroke-miterlimit:4;stroke-opacity:1;stroke-dasharray:none;display:inline"/><path style="fill:#fff;fill-rule:evenodd;stroke:#666;stroke-width:.5;stroke-linecap:butt;stroke-linejoin:miter;stroke-miterlimit:4;stroke-opacity:1;stroke-dasharray:none;display:inline" id="path4600" d="m 57.871999,270.41818 2,0 0,-8 -2,0 0,8 z m 0,-12 c 0,0 0,2 0,2 0,0 2,0 2,0 0,0 0,-2 0,-2 0,0 -2,0 -2,0 z"/><path id="path4602" d="m 73.871999,270.41818 -2,0 0,2 2,0 c 0,0 4,0 4,-4 l 0,-6 -2,0 0,6 c 0,2 -2,2 -2,2 z m 2,-12 c 0,0 0,2 0,2 0,0 2,0 2,0 0,0 0,-2 0,-2 0,0 -2,0 -2,0 z" style="fill:#fff;fill-rule:evenodd;stroke:#666;stroke-width:.5;stroke-linecap:butt;stroke-linejoin:miter;stroke-miterlimit:4;stroke-opacity:1;stroke-dasharray:none;display:inline"/><path id="path4604" d="m 87.871999,258.41818 0,12 2,0 0,-3 1,0 c 0,0 3,3 3,3 l 2,0 c 0,0 0,-1 0,-1 0,0 -4,-4 -4,-4 l 3,-3 0,-1 -2,0 -3,3 0,-6 -2,0 z" style="fill:#fff;fill-rule:evenodd;stroke:#666;stroke-width:.5;stroke-linecap:butt;stroke-linejoin:miter;stroke-miterlimit:4;stroke-opacity:1;stroke-dasharray:none;display:inline"/><path id="path4606" d="m 105.872,258.41818 0,12 c 0,0 2,0 2,0 l 0,-12 -2,0 z" style="fill:#fff;fill-rule:evenodd;stroke:#666;stroke-width:.5;stroke-linecap:butt;stroke-linejoin:miter;stroke-miterlimit:4;stroke-opacity:1;stroke-dasharray:none;display:inline"/><path id="path4608" d="m 117.872,261.41818 0,9 2,0 0,-6 c 0,-1 1,-1 1,-1 1,0 1,1 1,1 l 0,6 2,0 0,-6 c 0,-1 1,-1 1,-1 1,0 1,1 1,1 l 0,6 2,0 0,-6 c 0,0 0,-3 -3,-3 0,0 -2,0 -2,2 0,0 0,-2 -2,-2 0,0 -1,0 -1,1 l 0,-1 -2,0 z" style="fill:#fff;fill-rule:evenodd;stroke:#666;stroke-width:.5;stroke-linecap:butt;stroke-linejoin:miter;stroke-miterlimit:4;stroke-opacity:1;stroke-dasharray:none;display:inline"/><path id="path4610" d="m 135.872,261.41818 0,9 2,0 0,-5 c 0,-2 2,-2 2,-2 0,0 2,0 2,2 l 0,5 2,0 0,-5 c 0,-4 -4,-4 -4,-4 0,0 -2,0 -2,1 l 0,-1 -2,0 z" style="fill:#fff;fill-rule:evenodd;stroke:#666;stroke-width:.5;stroke-linecap:butt;stroke-linejoin:miter;stroke-miterlimit:4;stroke-opacity:1;stroke-dasharray:none;display:inline"/><path style="fill:#fff;fill-rule:evenodd;stroke:#666;stroke-width:.5;stroke-linecap:butt;stroke-linejoin:miter;stroke-miterlimit:4;stroke-opacity:1;stroke-dasharray:none;display:inline" id="path4612" d="m 151.872,266.41818 c 0,4 4,4 4,4 0,0 4,0 4,-4 l 0,-1 c 0,-4 -4,-4 -4,-4 0,0 -4,0 -4,4 l 0,1 z m 6,0 c 0,2 -2,2 -2,2 0,0 -2,0 -2,-2 l 0,-1 c 0,-2 2,-2 2,-2 0,0 2,0 2,2 l 0,1 z"/><path style="fill:#fff;fill-rule:evenodd;stroke:#666;stroke-width:.5;stroke-linecap:butt;stroke-linejoin:miter;stroke-miterlimit:4;stroke-opacity:1;stroke-dasharray:none;display:inline" id="path4614" d="m -88.128001,277.41818 0,11 2,0 0,-3 c 0,1 2,1 2,1 0,0 4,0 4,-4 l 0,-1 c 0,-4 -4,-4 -4,-4 0,0 -2,0 -2,1 l 0,-1 -2,0 z m 2,3 0,3 c 0,1 2,1 2,1 0,0 2,0 2,-2 l 0,-1 c 0,-2 -2,-2 -2,-2 0,0 -2,0 -2,1 z"/><path id="path4616" d="m -56.128001,277.41818 c 0,0 0,9 0,9 l 2,0 0,-5 c 0,-2 2,-2 2,-2 l 2,0 0,-2 -2,0 c 0,0 -1,0 -2,1 0,0 0,-1 0,-1 0,0 -2,0 -2,0 z" style="fill:#fff;fill-rule:evenodd;stroke:#666;stroke-width:.5;stroke-linecap:butt;stroke-linejoin:miter;stroke-miterlimit:4;stroke-opacity:1;stroke-dasharray:none;display:inline"/><path id="path4618" d="m -32.128001,280.41818 c 0,-3 -4,-3 -4,-3 0,0 -4,0 -4,3 0,3 6,2 6,3 0,0 0,1 -2,1 0,0 -2,0 -2,-1 l -2,0 c 0,3 4,3 4,3 0,0 4,0 4,-3 0,-3 -6,-2 -6,-3 0,0 0,-1 2,-1 0,0 2,0 2,1 l 2,0 z" style="fill:#fff;fill-rule:evenodd;stroke:#666;stroke-width:.5;stroke-linecap:butt;stroke-linejoin:miter;stroke-miterlimit:4;stroke-opacity:1;stroke-dasharray:none;display:inline"/><path id="path4620" d="m -18.128001,286.41818 c 0,0 -4,0 -4,-4 l 0,-2 -2,0 0,-2 2,0 0,-3 2,0 0,3 2,0 0,2 -2,0 0,2 c 0,2 2,2 2,2 l 2,0 0,2 -2,0 z" style="fill:#fff;fill-rule:evenodd;stroke:#666;stroke-width:.5;stroke-linecap:butt;stroke-linejoin:miter;stroke-miterlimit:4;stroke-opacity:1;stroke-dasharray:none;display:inline"/><path id="path4622" d="m -8.1280007,277.41818 c 0,0 0,5 0,5 0,0 0,4 4,4 0,0 2,0 2,-1 l 0,1 1.99999997,0 0,-9 -1.99999997,0 0,5 c 0,2 -2,2 -2,2 0,0 -2,0 -2,-2 l 0,-5 -2,0 z" style="fill:#fff;fill-rule:evenodd;stroke:#666;stroke-width:.5;stroke-linecap:butt;stroke-linejoin:miter;stroke-miterlimit:4;stroke-opacity:1;stroke-dasharray:none;display:inline"/><path style="fill:#fff;fill-rule:evenodd;stroke:#666;stroke-width:.5;stroke-linecap:butt;stroke-linejoin:miter;stroke-miterlimit:4;stroke-opacity:1;stroke-dasharray:none;display:inline" id="path4624" d="m 5.8719993,277.41818 0,1 4,8 1.9999997,0 4,-8 0,-1 -2,0 -3,7 -2.9999997,-7 -2,0 z"/><path id="path4626" d="m 39.871999,286.41818 2,0 2,-2 c 0,0 2,2 2,2 l 2,0 0,-1 c 0,0 -3,-3 -3,-3 l 0,-1 3,-3 0,-1 -2,0 -2,2 -2,-2 -2,0 0,1 3,3 0,1 -3,3 0,1 z" style="fill:#fff;fill-rule:evenodd;stroke:#666;stroke-width:.5;stroke-linecap:butt;stroke-linejoin:miter;stroke-miterlimit:4;stroke-opacity:1;stroke-dasharray:none;display:inline"/><path style="fill:#fff;fill-rule:evenodd;stroke:#666;stroke-width:.5;stroke-linecap:butt;stroke-linejoin:miter;stroke-miterlimit:4;stroke-opacity:1;stroke-dasharray:none;display:inline" id="path4628" d="m 71.871999,277.41818 8,0 0,2 -5,5 5,0 0,2 -8,0 0,-2 5,-5 -5,0 0,-2 z"/><path id="path4630" d="m -70.128001,212.41818 c 1.333338,-1.33333 0.666669,-0.66666 2,-2 0,0 2,0 2,0 l 0,10 2,0 0,2 -6,0 0,-2 2,0 0,-7 c 0,0 -2,2 -2,2 0,0 0,-3 0,-3 z" style="fill:#fff;fill-rule:evenodd;stroke:#666;stroke-width:.5;stroke-linecap:butt;stroke-linejoin:miter;stroke-miterlimit:4;stroke-opacity:1;stroke-dasharray:none;display:inline"/><path id="path4632" d="m -56.128001,214.41818 c 0,0 0,-4 4,-4 0,0 4,0 4,4 0,0 0,1 -1,2 0,0 -4,3 -4,4 l 5,0 0,2 -8,0 c 0,0 0,-1 0,-1 0,-2 3.097776,-4.09778 4,-5 1,-1 2,-1 2,-2 0,-2 -2,-2 -2,-2 -2,0 -2,2 -2,2 l -2,0 z" style="fill:#fff;fill-rule:evenodd;stroke:#666;stroke-width:.5;stroke-linecap:butt;stroke-linejoin:miter;stroke-miterlimit:4;stroke-opacity:1;stroke-dasharray:none;display:inline"/><path style="fill:#fff;fill-rule:evenodd;stroke:#666;stroke-width:.5;stroke-linecap:butt;stroke-linejoin:miter;stroke-miterlimit:4;stroke-opacity:1;stroke-dasharray:none;display:inline" id="path4634" d="m -35.128001,217.41818 c 1,0 1,1 1,1 0,2 -2,2 -2,2 -2,0 -2,-2 -2,-2 l -2,0 c 0,0 0,4 4,4 0,0 4,0 4,-4 0,-2 -1,-2 -1,-2 0,0 1,0 1,-2 0,-4 -4,-4 -4,-4 -4,0 -4,4 -4,4 l 2,0 c 0,0 0,-2 2,-2 0,0 2,0 2,2 0,0 0,1 -1,1 l -1,0 0,2 1,0 z"/><path style="fill:#fff;fill-rule:evenodd;stroke:#666;stroke-width:.5;stroke-linecap:butt;stroke-linejoin:miter;stroke-miterlimit:4;stroke-opacity:1;stroke-dasharray:none;display:inline" id="path4636" d="m -0.12800073,210.41818 -7.99999997,0 0,7 2,0 c 0,0 0,-1 1,-1 l 1,0 c 0,0 2,0 2,2 0,0 0,2 -2,2 0,0 -2,0 -2,-1 l -2,0 c 0,0 0,3 4,3 3.99999997,0 3.99999997,-4 3.99999997,-4 0,0 0,-4 -3.99999997,-4 l -2,0 0,-2 5.99999997,0 0,-2 z"/><path id="path4638" d="m 23.871999,210.41818 c 0,0 8,0 8,0 l 0,2 c 0,0 -4,4 -4,10 l -2,0 c 0,-6 4,-10 4,-10 l -6,0 0,-2 z" style="fill:#fff;fill-rule:evenodd;stroke:#666;stroke-width:.5;stroke-linecap:butt;stroke-linejoin:miter;stroke-miterlimit:4;stroke-opacity:1;stroke-dasharray:none;display:inline"/><path style="fill:#fff;fill-rule:evenodd;stroke:#666;stroke-width:.5;stroke-linecap:butt;stroke-linejoin:miter;stroke-miterlimit:4;stroke-opacity:1;stroke-dasharray:none;display:inline" id="path4640" d="m 39.871999,213.41818 c 0,-3 3,-3 4,-3 1,0 4,0 4,3 l 0,1 c 0,2 -2,2 -2,2 0,0 2,0 2,2 l 0,1 c 0.0029,3 -3,3 -4,3 -1,0 -4,0 -4,-3 l 0,-1 c 0,-2 2,-2 2,-2 0,0 -2,0 -2,-2 l 0,-1 z m 2,5 0,1 c 0,1 1,1 1,1 l 2,0 c 0,0 1,0 1,-1 l 0,-1 c 0,0 0,-1 -1,-1 l -1.97554,0 c 0,0 -1.02446,0 -1.02446,1 z m 0,-5 0,1 c 0,1 1,1 1,1 l 2,0 c 0,0 1,0 1,-1 l 0,-1 c 0,-1 -1,-1 -1,-1 l -2,0 c 0,0 -1,0 -1,1 z"/><path style="fill:#fff;fill-rule:evenodd;stroke:#666;stroke-width:.5;stroke-linecap:butt;stroke-linejoin:miter;stroke-miterlimit:4;stroke-opacity:1;stroke-dasharray:none;display:inline" id="path4642" d="m -74.128001,238.41818 c 0,0 5,-12 5,-12 0,0 2,0 2,0 l 5,12 -2,0 -1,-3 -6,0 -1,3 -2,0 z m 4,-5 4,0 c 0,0 -2,-4 -2,-4 0,0 -2,4 -2,4 z"/><path style="fill:#fff;fill-rule:evenodd;stroke:#666;stroke-width:.5;stroke-linecap:butt;stroke-linejoin:miter;stroke-miterlimit:4;stroke-opacity:1;stroke-dasharray:none;display:inline" id="path4644" d="m -42.128001,232.41818 c -0.06583,-5.99964 6,-6 6,-6 3,0 6,1 6,4 l -2,0 c 0,0 0,-2 -4,-2 0,0 -4,0 -4,4 0,4 4,4 4,4 4,0 4,-2 4,-2 l 2,0 c 0,3 -3,4 -6,4 0,0 -6,0 -6,-6 z"/><path id="path4646" d="m -14.128001,232.41818 c 0,6 -6,6 -6,6 l -6,0 0,-12 6,0 c 0,0 5.971812,7e-5 6,6 z m -2,0 c 0,-4 -4,-4 -4,-4 l -4,0 0,8 4,0 c 4,0 4,-4 4,-4 z" style="fill:#fff;fill-rule:evenodd;stroke:#666;stroke-width:.5;stroke-linecap:butt;stroke-linejoin:miter;stroke-miterlimit:4;stroke-opacity:1;stroke-dasharray:none;display:inline"/><path style="fill:#fff;fill-rule:evenodd;stroke:#666;stroke-width:.5;stroke-linecap:butt;stroke-linejoin:miter;stroke-miterlimit:4;stroke-opacity:1;stroke-dasharray:none;display:inline" id="path4648" d="m 5.8719993,238.41818 c 0,0 0,-12 0,-12 l 9.9999997,0 0,2 -7.9999997,0 0,3 5.9999997,0 0,2 -5.9999997,0 0,5 -2,0 z"/><path id="path4650" d="m 21.871999,232.41818 c 0,-6 6,-6 6,-6 0,0 6,0 6,4 l -2,0 c 0,-2 -4,-2 -4,-2 0,0 -4,0 -4,4 0,4 4,4 4,4 l 2,0 c 2,0 2,-2 2,-2 l -4,0 0,-2 c 0,0 6,0 6,0 l 0,2 c 0,0 0,4 -4,4 0,0 -2,0 -2,0 -6,0 -6,-6 -6,-6 z" style="fill:#fff;fill-rule:evenodd;stroke:#666;stroke-width:.5;stroke-linecap:butt;stroke-linejoin:miter;stroke-miterlimit:4;stroke-opacity:1;stroke-dasharray:none;display:inline"/><path id="path4652" d="m 37.871999,226.41818 0,12 2,0 0,-5 8,0 0,5 2,0 0,-12 -2,0 0,5 -8,0 0,-5 -2,0 z" style="fill:#fff;fill-rule:evenodd;stroke:#666;stroke-width:.5;stroke-linecap:butt;stroke-linejoin:miter;stroke-miterlimit:4;stroke-opacity:1;stroke-dasharray:none;display:inline"/><path id="path4654" d="m 57.871999,226.41818 0,12 2,0 0,-12 -2,0 z" style="fill:#fff;fill-rule:evenodd;stroke:#666;stroke-width:.5;stroke-linecap:butt;stroke-linejoin:miter;stroke-miterlimit:4;stroke-opacity:1;stroke-dasharray:none;display:inline"/><path style="fill:#fff;fill-rule:evenodd;stroke:#666;stroke-width:.5;stroke-linecap:butt;stroke-linejoin:miter;stroke-miterlimit:4;stroke-opacity:1;stroke-dasharray:none;display:inline" id="path4656" d="m 75.871999,226.41818 0,2 2,0 0,8 c 0,2 -2,2 -2,2 0,0 -2,0 -2,-2 l -2,0 c 0,4 3,4 4,4 1,0 4,0 4,-4 l 0,-10 -4,0 z"/><path id="path4658" d="m 85.871999,226.41818 0,12 2,0 0,-2 c 0,0 2,-2 2,-2 0,0 4,4 4,4 l 2,0 c 0,0 0,-1 0,-1 0,0 -5,-5 -5,-5 l 5,-5 0,-1 -2,0 -6,6 0,-6 -2,0 z" style="fill:#fff;fill-rule:evenodd;stroke:#666;stroke-width:.5;stroke-linecap:butt;stroke-linejoin:miter;stroke-miterlimit:4;stroke-opacity:1;stroke-dasharray:none;display:inline"/><path style="fill:#fff;fill-rule:evenodd;stroke:#666;stroke-width:.5;stroke-linecap:butt;stroke-linejoin:miter;stroke-miterlimit:4;stroke-opacity:1;stroke-dasharray:none;display:inline" id="path4660" d="m 103.872,226.41818 0,12 8,0 0,-2 -6,0 0,-10 -2,0 z"/><path id="path4662" d="m 117.872,226.41818 0,12 2,0 0,-8 4,8 4,-8 0,8 2,0 0,-12 -2,0 -4,8 -4,-8 -2,0 z" style="fill:#fff;fill-rule:evenodd;stroke:#666;stroke-width:.5;stroke-linecap:butt;stroke-linejoin:miter;stroke-miterlimit:4;stroke-opacity:1;stroke-dasharray:none;display:inline"/><path id="path4664" d="m 135.872,226.41818 0,12 2,0 0,-9 6,9 2,0 0,-12 -2,0 0,8 c 0,0 -5,-8 -5,-8 l -3,0 z" style="fill:#fff;fill-rule:evenodd;stroke:#666;stroke-width:.5;stroke-linecap:butt;stroke-linejoin:miter;stroke-miterlimit:4;stroke-opacity:1;stroke-dasharray:none;display:inline"/><path style="fill:#fff;fill-rule:evenodd;stroke:#666;stroke-width:.5;stroke-linecap:butt;stroke-linejoin:miter;stroke-miterlimit:4;stroke-opacity:1;stroke-dasharray:none;display:inline" id="path4666" d="m 149.872,232.41818 c 0,1 0,6 6,6 6,0 6,-5 6,-6 0,-1 0,-6 -6,-6 -6,0 -6,5 -6,6 z m 2,0 c 0,-4 4,-4 4,-4 0,0 4,0 4,4 0,4 -4,4 -4,4 0,0 -4,0 -4,-4 z"/><path style="fill:#fff;fill-rule:evenodd;stroke:#666;stroke-width:.5;stroke-linecap:butt;stroke-linejoin:miter;stroke-miterlimit:4;stroke-opacity:1;stroke-dasharray:none;display:inline" id="path4668" d="m -90.128001,242.41818 0,12 2,0 0,-4 4,0 c 4,0 4,-4 4,-4 0,-4 -4,-4 -4,-4 l -6,0 z m 2,2 0,4 4,0 c 2,0 1.932832,-1.03898 2,-2 0,-2 -2,-2 -2,-2 l -4,0 z"/><path id="path4670" d="m -42.128001,246.41818 c 0,-4 4,-4 4,-4 l 2,0 c 4,0 4,4 4,4 l -2,0 c 0,-2 -2,-2 -2,-2 l -2,0 c -1.53125,0 -2,1 -2,2 0,0 0,1 1,1 l 3,0 c 4,0 4,2 4,3 0,4 -4,4 -4,4 l -2,0 c -4,0 -4,-4 -4,-4 l 2,0 c 0,2 2,2 2,2 0,0 2,0 2,0 2,0 2,-1.5 2,-2 0,0 0,-1 -1,-1 l -3,0 c -4,0 -4,-2 -4,-3 z" style="fill:#fff;fill-rule:evenodd;stroke:#666;stroke-width:.5;stroke-linecap:butt;stroke-linejoin:miter;stroke-miterlimit:4;stroke-opacity:1;stroke-dasharray:none;display:inline"/><path id="path4672" d="m -26.128001,242.41818 10,0 0,2 -4,0 0,10 -2,0 0,-10 -4,0 0,-2 z" style="fill:#fff;fill-rule:evenodd;stroke:#666;stroke-width:.5;stroke-linecap:butt;stroke-linejoin:miter;stroke-miterlimit:4;stroke-opacity:1;stroke-dasharray:none;display:inline"/><path style="fill:#fff;fill-rule:evenodd;stroke:#666;stroke-width:.5;stroke-linecap:butt;stroke-linejoin:miter;stroke-miterlimit:4;stroke-opacity:1;stroke-dasharray:none;display:inline" id="path4674" d="m -10.128001,248.41818 0,-6 2.0000003,0 0,7 c 0,2 1,3 2,3 0,0 2,0 2,0 1,0 2,-1 2,-3 l 0,-7 1.99999997,0 0,6 c 0,6 -2.99999997,6 -3.99999997,6 0,0 -2,0 -2,0 -1,0 -4.0000003,0 -4.0000003,-6 z"/><path id="path4676" d="m 5.8719993,243.41818 0,-1 2,0 3.9999997,9 4,-9 2,0 0,1 -5,11 -2,0 -4.9999997,-11 z" style="fill:#fff;fill-rule:evenodd;stroke:#666;stroke-width:.5;stroke-linecap:butt;stroke-linejoin:miter;stroke-miterlimit:4;stroke-opacity:1;stroke-dasharray:none;display:inline"/><path style="fill:#fff;fill-rule:evenodd;stroke:#666;stroke-width:.5;stroke-linecap:butt;stroke-linejoin:miter;stroke-miterlimit:4;stroke-opacity:1;stroke-dasharray:none;display:inline" id="path4678" d="m 39.871999,254.41818 2,0 3,-5 3,5 2,0 0,-1 -3,-5 3,-5 0,-1 -2,0 -3,5 -3,-5 -2,0 0,1 3,5 -3,5 0,1 z"/><path id="path4680" d="m 59.871999,254.41818 2,0 0,-4 4,-7 0,-1 c 0,0 -2,0 -2,0 0,0 -3,5 -3,5 0,0 -3,-5 -3,-5 l -2,0 0,1 c 0,0 4,7 4,7 l 0,4 z" style="fill:#fff;fill-rule:evenodd;stroke:#666;stroke-width:.5;stroke-linecap:butt;stroke-linejoin:miter;stroke-miterlimit:4;stroke-opacity:1;stroke-dasharray:none;display:inline"/><path style="fill:#fff;fill-rule:evenodd;stroke:#666;stroke-width:.5;stroke-linecap:butt;stroke-linejoin:miter;stroke-miterlimit:4;stroke-opacity:1;stroke-dasharray:none;display:inline" id="path4682" d="m 79.871999,245.41818 0,-3 -10,0 0,2 8,0 -8,8 0,2 10,0 0,-2 -7,0 7,-7 z"/><path id="path4684" d="m -86.128001,178.41818 6,0 0,2 -4,0 0,10 4,0 0,2 -6,0 0,-14 z" style="fill:#fff;fill-rule:evenodd;stroke:#666;stroke-width:.5;stroke-linecap:butt;stroke-linejoin:miter;stroke-miterlimit:4;stroke-opacity:1;stroke-dasharray:none;display:inline"/><path style="fill:#fff;fill-rule:evenodd;stroke:#666;stroke-width:.5;stroke-linecap:butt;stroke-linejoin:miter;stroke-miterlimit:4;stroke-opacity:1;stroke-dasharray:none;display:inline" id="path4686" d="m -66.128001,178.41818 -6,0 0,2 4,0 0,10 -4,0 0,2 6,0 0,-14 z"/><path id="path4688" d="m -54.128001,184.41819 2,-2 7,0 0,3 -3,0 0,7 -6,0 0,-8 z" style="fill:#fff;fill-rule:evenodd;stroke:#666;stroke-width:.5;stroke-linecap:butt;stroke-linejoin:miter;stroke-miterlimit:4;stroke-opacity:1;stroke-dasharray:none;display:inline"/><path style="fill:#fff;fill-rule:evenodd;stroke:#666;stroke-width:.5;stroke-linecap:butt;stroke-linejoin:miter;stroke-miterlimit:4;stroke-opacity:1;stroke-dasharray:none;display:inline" id="path4690" d="m -54.128001,184.41819 c 0,-1 1,-2 2,-2 l 8,0 0,3 -4,0 0,7 -6,0 0,-8 z"/><path id="path4692" d="m -18.128001,184.41819 c 0,-1 -1,-2 -2,-2 l -8,0 0,3 4,0 0,7 6,0 0,-8 z" style="fill:#fff;fill-rule:evenodd;stroke:#666;stroke-width:.5;stroke-linecap:butt;stroke-linejoin:miter;stroke-miterlimit:4;stroke-opacity:1;stroke-dasharray:none;display:inline"/><path style="fill:#fff;fill-rule:evenodd;stroke:#666;stroke-width:.5;stroke-linecap:butt;stroke-linejoin:miter;stroke-miterlimit:4;stroke-opacity:1;stroke-dasharray:none;display:inline" id="path4694" d="m -42.128001,182.41819 12,0 0,3 -12,0 0,-3 0,0 z"/><path id="path4696" d="m -6.1280007,178.41819 5.99999997,0 0,14 -5.99999997,0 0,-14 z" style="fill:#fff;fill-rule:evenodd;stroke:#666;stroke-width:.5;stroke-linecap:butt;stroke-linejoin:miter;stroke-miterlimit:4;stroke-opacity:1;stroke-dasharray:none;display:inline"/><path style="fill:#fff;fill-rule:evenodd;stroke:#666;stroke-width:.5;stroke-linecap:butt;stroke-linejoin:miter;stroke-miterlimit:4;stroke-opacity:1;stroke-dasharray:none;display:inline" id="path4698" d="m 23.871999,178.41819 6,0 0,14 -6,0 0,-14 z"/><path id="path4700" d="m 41.871999,186.41818 c 0,1 1,2 2,2 l 7,0 0,-3 -3,0 0,-7 -6,0 0,8 z" style="fill:#fff;fill-rule:evenodd;stroke:#666;stroke-width:.5;stroke-linecap:butt;stroke-linejoin:miter;stroke-miterlimit:4;stroke-opacity:1;stroke-dasharray:none;display:inline"/><path style="fill:#fff;fill-rule:evenodd;stroke:#666;stroke-width:.5;stroke-linecap:butt;stroke-linejoin:miter;stroke-miterlimit:4;stroke-opacity:1;stroke-dasharray:none;display:inline" id="path4702" d="m 77.871999,186.41819 c 0,1 -1,2 -2,2 l -7,-1e-5 0,-3 3,1e-5 0,-7 6,0 0,8 z"/><path id="path4704" d="m 53.871999,188.41819 12,0 0,-3 -12,0 0,3 0,0 z" style="fill:#fff;fill-rule:evenodd;stroke:#666;stroke-width:.5;stroke-linecap:butt;stroke-linejoin:miter;stroke-miterlimit:4;stroke-opacity:1;stroke-dasharray:none;display:inline"/><path id="path4706" d="m 103.872,184.41819 0,2 4,0 0,-4 -2,0 0,2 -2,0 z" style="fill:#fff;fill-rule:evenodd;stroke:#666;stroke-width:.5;stroke-linecap:butt;stroke-linejoin:miter;stroke-miterlimit:4;stroke-opacity:1;stroke-dasharray:none;display:inline"/><path id="path4708" d="m 119.872,183.41819 c 0,-1 1,-2 2,-2 l 10,0 0,7 -10,0 c -1,0 -2,-1 -2,-2 l 0,-3 z" style="fill:#fff;fill-rule:evenodd;stroke:#666;stroke-width:.5;stroke-linecap:butt;stroke-linejoin:miter;stroke-miterlimit:4;stroke-opacity:1;stroke-dasharray:none;display:inline"/><path style="fill:#fff;fill-rule:evenodd;stroke:#666;stroke-width:.5;stroke-linecap:butt;stroke-linejoin:miter;stroke-miterlimit:4;stroke-opacity:1;stroke-dasharray:none;display:inline" id="path4710" d="m 159.872,183.41819 c 0,-1 -1,-2 -2,-2 l -10,0 0,7 10,0 c 1,0 2,-1 2,-2 l 0,-3 z"/><path id="path4712" d="m 133.872,181.41819 12,0 0,7 -12,0 0,-7 z" style="fill:#fff;fill-rule:evenodd;stroke:#666;stroke-width:.5;stroke-linecap:butt;stroke-linejoin:miter;stroke-miterlimit:4;stroke-opacity:1;stroke-dasharray:none;display:inline"/><path style="fill:#fff;fill-rule:evenodd;stroke:#666;stroke-width:.5;stroke-linecap:butt;stroke-linejoin:miter;stroke-miterlimit:4;stroke-opacity:1;stroke-dasharray:none;display:inline" id="path4714" d="m -68.128001,194.41818 0,6 c 0,2 -1,2 -1,2 -1,0 -1,-2 -1,-2 l 0,-6 c 0,0 2,0 2,0 z m -2,12 c 0,0 0,-2 0,-2 0,0 2,0 2,0 0,0 0,2 0,2 0,0 -2,0 -2,0 z"/><path style="fill:#fff;fill-rule:evenodd;stroke:#666;stroke-width:.5;stroke-linecap:butt;stroke-linejoin:miter;stroke-miterlimit:4;stroke-opacity:1;stroke-dasharray:none;display:inline" id="path4716" d="m -54.128001,194.41819 2,0 0,5 -2,0 0,-5 z m 6,0 0,5 -2,0 0,-5 2,0 z"/><path id="path4718" d="m -38.128001,195.41818 0,2.02564 -2,0 0,2 2,0 0,2 -2,0 0,2 2,0 0,1.97436 2,0 0,-1.97436 2,0 0,1.97436 2,0 0,-1.97436 2,0 0,-2 -2,0 0,-2 2,0 0,-2 -2,-0.0128 0,-2.01282 -2,0 0,2.02564 -2,0 0,-2.02564 -2,0 z m 2,4.02564 2,0 0,2 -2,0 0,-2 z" style="fill:#fff;fill-rule:evenodd;stroke:#666;stroke-width:.5;stroke-linecap:butt;stroke-linejoin:miter;stroke-miterlimit:4;stroke-opacity:1;stroke-dasharray:none;display:inline"/><g style="stroke:#666;stroke-width:.5;stroke-miterlimit:4;stroke-opacity:1;stroke-dasharray:none;display:inline" id="g4720" transform="translate(-108.128,101.056)"><path style="fill:#fff;fill-rule:evenodd;stroke:#666;stroke-width:.5;stroke-linecap:butt;stroke-linejoin:miter;stroke-miterlimit:4;stroke-opacity:1;stroke-dasharray:none" id="path4722" d="m 108,93.362183 0,1 -6,11.999997 -2,0 0,-1 6,-11.999997 2,0 z"/><path id="path4724" d="m 108,100.36218 c 3,0 3,3 3,3 0,3 -3,3 -3,3 -3,0 -3,-3 -3,-3 0,-3 3,-3 3,-3 z m 0,2 c 1,0 1,1 1,1 0,1 -1,1 -1,1 -1,0 -1,-1 -1,-1 0,-1 1,-1 1,-1 z" style="fill:#fff;fill-rule:evenodd;stroke:#666;stroke-width:.5;stroke-linecap:butt;stroke-linejoin:miter;stroke-miterlimit:4;stroke-opacity:1;stroke-dasharray:none"/><path style="fill:#fff;fill-rule:evenodd;stroke:#666;stroke-width:.5;stroke-linecap:butt;stroke-linejoin:miter;stroke-miterlimit:4;stroke-opacity:1;stroke-dasharray:none" id="path4726" d="m 100,93.36218 c 3,0 3,3 3,3 0,3 -3,3 -3,3 -3,0 -3,-3 -3,-3 0,-3 3,-3 3,-3 z m 0,2 c 1,0 1,1 1,1 0,1 -1,1 -1,1 -1,0 -1,-1 -1,-1 0,-1 1,-1 1,-1 z"/></g><path id="path4728" d="m 27.871999,194.41818 2,0 0,5 -2,0 0,-5 z" style="fill:#fff;fill-rule:evenodd;stroke:#666;stroke-width:.5;stroke-linecap:butt;stroke-linejoin:miter;stroke-miterlimit:4;stroke-opacity:1;stroke-dasharray:none;display:inline"/><path id="path4730" d="m 71.871999,195.41819 2,2 0,-3 2,0 0,3 2,-2 2,0 0,1 -3,3 3,2.99999 0,1 -2,0 -2,-2 0,3 -2,0 0,-3 -2,2 -2,0 0,-1 3,-2.99999 -3,-3 0,-1 2,0 z" style="fill:#fff;fill-rule:evenodd;stroke:#666;stroke-width:.5;stroke-linecap:butt;stroke-linejoin:miter;stroke-miterlimit:4;stroke-opacity:1;stroke-dasharray:none;display:inline"/><path id="path4732" d="m 85.871999,200.41819 4,0 0,-4 2,0 0,4 4,0 0,1.99998 -4,0 0,4 -2,0 0,-4 -4,0 0,-1.99998 z" style="fill:#fff;fill-rule:evenodd;stroke:#666;stroke-width:.5;stroke-linecap:butt;stroke-linejoin:miter;stroke-miterlimit:4;stroke-opacity:1;stroke-dasharray:none;display:inline"/><path id="path4734" d="m 105.872,203.41819 2,0 0,1.99999 -1,3 -1,0 0,-4.99999 z" style="fill:#fff;fill-rule:evenodd;stroke:#666;stroke-width:.5;stroke-linecap:butt;stroke-linejoin:miter;stroke-miterlimit:4;stroke-opacity:1;stroke-dasharray:none;display:inline"/><path id="path4736" d="m 119.872,200.41818 8,0 0,2 -8,0 0,-2 z" style="fill:#fff;fill-rule:evenodd;stroke:#666;stroke-width:.5;stroke-linecap:butt;stroke-linejoin:miter;stroke-miterlimit:4;stroke-opacity:1;stroke-dasharray:none;display:inline"/><path id="path4738" d="m 139.872,203.41818 0,2 2,0 0,-2 -2,0 z" style="fill:#fff;fill-rule:evenodd;stroke:#666;stroke-width:.5;stroke-linecap:butt;stroke-linejoin:miter;stroke-miterlimit:4;stroke-opacity:1;stroke-dasharray:none;display:inline"/><path style="fill:#fff;fill-rule:evenodd;stroke:#666;stroke-width:.5;stroke-linecap:butt;stroke-linejoin:miter;stroke-miterlimit:4;stroke-opacity:1;stroke-dasharray:none;display:inline" id="path4740" d="m 159.872,194.41819 0,1 -6,11.99999 -2,0 0,-1 6,-11.99999 2,0 z"/><g style="stroke:#666;stroke-width:.5;stroke-miterlimit:4;stroke-opacity:1;stroke-dasharray:none;display:inline" id="g4742" transform="translate(-108.128,101.056)"><path style="fill:#fff;fill-rule:evenodd;stroke:#666;stroke-width:.5;stroke-linecap:butt;stroke-linejoin:miter;stroke-miterlimit:4;stroke-opacity:1;stroke-dasharray:none" id="path4744" d="m 182,112.36218 2,0 0,2 -2,0 0,-2 z"/><path style="fill:#fff;fill-rule:evenodd;stroke:#666;stroke-width:.5;stroke-linecap:butt;stroke-linejoin:miter;stroke-miterlimit:4;stroke-opacity:1;stroke-dasharray:none" id="path4746" d="m 182,118.36218 2,0 0,2 -2,0 0,-2 z"/></g><g id="g4748" transform="translate(-108.128,101.056)" style="stroke:#666;stroke-width:.5;stroke-miterlimit:4;stroke-opacity:1;stroke-dasharray:none;display:inline"><path id="path4750" d="m 198,112.36218 2,0 0,2 -2,0 0,-2 z" style="fill:#fff;fill-rule:evenodd;stroke:#666;stroke-width:.5;stroke-linecap:butt;stroke-linejoin:miter;stroke-miterlimit:4;stroke-opacity:1;stroke-dasharray:none"/><path id="path4752" d="m 198,118.36219 2,0 c 0,0 0,1.99999 0,1.99999 l -1,3 -1,0 0,-4.99999 z" style="fill:#fff;fill-rule:evenodd;stroke:#666;stroke-width:.5;stroke-linecap:butt;stroke-linejoin:miter;stroke-miterlimit:4;stroke-opacity:1;stroke-dasharray:none"/></g><path id="path4754" d="m 113.872,212.41818 0,2 -7,3 7,3 0,2 -1,0 -9,-4 0,-2 9,-4 1,0 z" style="fill:#fff;fill-rule:evenodd;stroke:#666;stroke-width:.5;stroke-linecap:butt;stroke-linejoin:miter;stroke-miterlimit:4;stroke-opacity:1;stroke-dasharray:none;display:inline"/><path style="fill:#fff;fill-rule:evenodd;stroke:#666;stroke-width:.5;stroke-linecap:butt;stroke-linejoin:miter;stroke-miterlimit:4;stroke-opacity:1;stroke-dasharray:none;display:inline" id="path4756" d="m 133.872,212.41818 0,2 7,3 -7,3 0,2 1,0 9,-4 0,-2 -9,-4 -1,0 z"/><g style="stroke:#666;stroke-width:.5;stroke-miterlimit:4;stroke-opacity:1;stroke-dasharray:none;display:inline" id="g4758" transform="translate(-108.128,101.056)"><path style="fill:#fff;fill-rule:evenodd;stroke:#666;stroke-width:.5;stroke-linecap:butt;stroke-linejoin:miter;stroke-miterlimit:4;stroke-opacity:1;stroke-dasharray:none" id="path4760" d="m 228,113.36218 0,2 8,0 0,-2 -8,0 z"/><path id="path4762" d="m 228,117.36218 0,2 8,0 0,-2 -8,0 z" style="fill:#fff;fill-rule:evenodd;stroke:#666;stroke-width:.5;stroke-linecap:butt;stroke-linejoin:miter;stroke-miterlimit:4;stroke-opacity:1;stroke-dasharray:none"/></g><g id="g4764" transform="translate(-108.128,101.056)" style="stroke:#666;stroke-width:.5;stroke-miterlimit:4;stroke-opacity:1;stroke-dasharray:none;display:inline"><path id="path4766" d="m 264,119.36218 c 0,0 -2,0 -2,0 0,0 0,2 0,2 0,0 2,0 2,0 0,0 0,-2 0,-2 z" style="fill:#fff;fill-rule:evenodd;stroke:#666;stroke-width:.5;stroke-linecap:butt;stroke-linejoin:miter;stroke-miterlimit:4;stroke-opacity:1;stroke-dasharray:none"/><path style="fill:#fff;fill-rule:evenodd;stroke:#666;stroke-width:.5;stroke-linecap:butt;stroke-linejoin:miter;stroke-miterlimit:4;stroke-opacity:1;stroke-dasharray:none" id="path4768" d="m 262,117.36218 c 1,1 2,0 2,0 0,-2 4,0 4,-4 0,-4 -4,-4 -4,-4 -4,0 -4,4 -4,4 l 2,0 c 0,0 0,-2 2,-2 0,0 2,0 2,2 0,2 -4,0 -4,4 z"/></g><path style="fill:#fff;fill-rule:evenodd;stroke:#666;stroke-width:.5;stroke-linecap:butt;stroke-linejoin:miter;stroke-miterlimit:4;stroke-opacity:1;stroke-dasharray:none;display:inline" id="path4770" d="m 89.871999,242.41818 6,0 0,2 -4,0 0,10 4,0 0,2 -6,0 0,-14 z"/><path id="path4772" d="m 125.872,242.41818 -6,0 0,2 4,0 0,10 -4,0 0,2 6,0 0,-14 z" style="fill:#fff;fill-rule:evenodd;stroke:#666;stroke-width:.5;stroke-linecap:butt;stroke-linejoin:miter;stroke-miterlimit:4;stroke-opacity:1;stroke-dasharray:none;display:inline"/><path id="path4774" d="m 103.872,242.41818 0,1.00001 6,11.99999 2,0 0,-1 -6,-12 -2,0 z" style="fill:#fff;fill-rule:evenodd;stroke:#666;stroke-width:.5;stroke-linecap:butt;stroke-linejoin:miter;stroke-miterlimit:4;stroke-opacity:1;stroke-dasharray:none;display:inline"/><path id="path4776" d="m 134.872,247.41818 2,0 3,-3 3,3 2,0 0,-1 -4,-4 -2,0 -4,4 0,1 z" style="fill:#fff;fill-rule:evenodd;stroke:#666;stroke-width:.5;stroke-linecap:butt;stroke-linejoin:miter;stroke-miterlimit:4;stroke-opacity:1;stroke-dasharray:none;display:inline"/><path id="path4778" d="m 149.872,254.41818 10,0 0,2 -10,0 0,-2 z" style="fill:#fff;fill-rule:evenodd;stroke:#666;stroke-width:.5;stroke-linecap:butt;stroke-linejoin:miter;stroke-miterlimit:4;stroke-opacity:1;stroke-dasharray:none;display:inline"/><path id="path4780" d="m -84.128001,258.41818 0,6 -2,0 0,-6 2,0 z" style="fill:#fff;fill-rule:evenodd;stroke:#666;stroke-width:.5;stroke-linecap:butt;stroke-linejoin:miter;stroke-miterlimit:4;stroke-opacity:1;stroke-dasharray:none;display:inline"/><path id="path4782" d="m 105.872,274.41818 2,0 0,14 -2,0 0,-14 z" style="fill:#fff;fill-rule:evenodd;stroke:#666;stroke-width:.5;stroke-linecap:butt;stroke-linejoin:miter;stroke-miterlimit:4;stroke-opacity:1;stroke-dasharray:none;display:inline"/><path id="path4784" d="m 137.872,274.41818 2,0 0,5 -2,0 0,-5 z m 6,0 0,5 -2,0 0,-5 2,0 z" style="fill:#fff;fill-rule:evenodd;stroke:#666;stroke-width:.5;stroke-linecap:butt;stroke-linejoin:miter;stroke-miterlimit:4;stroke-opacity:1;stroke-dasharray:none;display:inline"/><path style="fill:#fff;fill-rule:evenodd;stroke:#666;stroke-width:.5;stroke-linecap:butt;stroke-linejoin:miter;stroke-miterlimit:4;stroke-opacity:1;stroke-dasharray:none;display:inline" id="path4786" d="m -78.128001,238.41818 0,2 -6,0 c 0,0 -6,0 -6,-6 l 0,-1 c 0,-6 6,-6 6,-6 l 1,0 c 5,0 5,5 5,5 l 0,1 c 0,3 -4,3 -4,3 l -1,0 c -3,0 -3,-1 -3,-1 0,-2 0,-4 3,-4 1,0 1,1 1,1 l 0,3 c 0,0 2,0 2,-1 l 0,-2 c 0,0 0,-3 -4,-3 0,0 -4,0 -4,4 l 0,1 c 0,4 4,4 4,4 l 6,0 z m -5,-6 0,3 -1,0 c -1,0 -1,-1 -1,-1 0,-2 0.545083,-1.97891 2,-2 z"/><g id="g4788" transform="translate(-110.128,101.04318)" style="stroke:#666;stroke-width:.5;stroke-miterlimit:4;stroke-opacity:1;stroke-dasharray:none;display:inline"><path style="fill:#fff;fill-rule:evenodd;stroke:#666;stroke-width:.5;stroke-linecap:butt;stroke-linejoin:miter;stroke-miterlimit:4;stroke-opacity:1;stroke-dasharray:none;display:inline" id="path4790" d="m 84,97.375 c 0,1 0,4 4,4 l 3,-0.0128 c 0,0 1,0 1,1 l 0,1 c 0,0 0,0.51071 -1,1 -0.999999,0.48929 -4,0.50508 -5,0 l -2,-0.98718 0,2 2,0.98718 c 1,0.53664 5,0.55243 6,0 1,-0.56398 2,-1.98718 2,-2.98718 0,-1 0,-4 -4,-4 0,0 -3,-0.01282 -3,-0.01282 0,0 -1,-0.30552 -1,-1 l 0,-1 c 0,-0.573842 0.581823,-0.820646 1,-1 0.404807,-0.17362 4,-0.503373 5,0 0.993741,0.500222 2,1.012817 2,1.012817 l 0,-2 c 0,0 -0.993711,-0.523428 -2,-1.012817 -1,-0.48633 -5,-0.516691 -6,0 -1.006514,0.52004 -2,2.0128 -2,3.0128 z"/><path style="fill:#fff;fill-rule:evenodd;stroke:#666;stroke-width:.5;stroke-linecap:butt;stroke-linejoin:miter;stroke-miterlimit:4;stroke-opacity:1;stroke-dasharray:none" id="path4792" d="m 88,93.362183 2,0 0,13.999997 -2,0 0,-13.999997 z"/></g><path id="path4794" d="m -56.128001,236.41818 4,0 c 0,0 2,0 2,-1 l 0,-1 c 0,-1 -1,-1 -1,-1 l -5,0 0,3 z m -2,2 0,-12 6,0 c 0,0 4,0 4,3 l 0,0 c 0,0 0,3 -2,3 2,0 2,3 2,3 l 0,0 c 0,3 -4,3 -4,3 l -6,0 z m 2,-10 0,3 5,0 c 0,0 1,0 1,-1 l 0,-1 c 0,-1 -2,-1 -2,-1 l -4,0 z" style="fill:#fff;fill-rule:evenodd;stroke:#666;stroke-width:.5;stroke-linecap:butt;stroke-linejoin:miter;stroke-miterlimit:4;stroke-opacity:1;stroke-dasharray:none;display:inline"/><path id="path4796" d="m -0.12800073,265.41818 c 0,-4 -3.99999997,-4 -3.99999997,-4 0,0 -4,0 -4,4 l 0,1 c 0,4 4,4 4,4 0,0 3.99999997,0 3.99999997,-3 l -1.99999997,0 c 0,1 -2,1 -2,1 0,0 -2,0 -2,-2 l 5.99999997,0 c 0,0 0,-1 0,-1 z m -5.99999997,0 c 0,-2 2,-2 2,-2 0,0 2,0 2,2 l -4,0 z" style="fill:#fff;fill-rule:evenodd;stroke:#666;stroke-width:.5;stroke-linecap:butt;stroke-linejoin:miter;stroke-miterlimit:4;stroke-opacity:1;stroke-dasharray:none;display:inline"/><path style="fill:#fff;fill-rule:evenodd;stroke:#666;stroke-width:.5;stroke-linecap:butt;stroke-linejoin:miter;stroke-miterlimit:4;stroke-opacity:1;stroke-dasharray:none;display:inline" id="path4798" d="m 23.871999,265.41818 c 0,-4 4,-4 4,-4 0,0 2,0 2,1 l 0,-1 2,0 0,7 c 0,0 0,4 -4,4 0,0 -1,0 -1,0 0,0 -3,0 -3,-3 l 2,0 c 0,1 1,1 1,1 0,0 1,0 1,0 0,0 2,0 2,-2 0,1 -2,1 -2,1 0,0 -4,0 -4,-4 z m 6,0 0,0 c 0,-2 -2,-2 -2,-2 0,0 -2,0 -2,2 0,0 0,1.32132 1.07398,1.81599 0.24734,0.11393 0.55164,0.18401 0.92602,0.18401 2,0 2,-2 2,-2 z"/><path style="fill:#fff;fill-rule:evenodd;stroke:#666;stroke-width:.5;stroke-linecap:butt;stroke-linejoin:miter;stroke-miterlimit:4;stroke-opacity:1;stroke-dasharray:none;display:inline" id="path4800" d="m -10.128001,238.41818 c 0,0 0,-12 0,-12 l 10.00000027,0 0,2 -7.99999997,0 0,3 6,0 0,2 -6,0 0,3 7.99999997,0 0,2 -10.00000027,0 z"/><path id="path4802" d="m -84.128001,210.41818 c -2,0 -4,1 -4,6 0,5 2,6 4,6 2,0 4,-1 4,-6 0,-5 -2,-6 -4,-6 z m -2,6 c 0,3 1,4 2,4 1,0 2,-1 2,-4 0,-3 -1,-4 -2,-4 -1,0 -2,1 -2,4 z" style="fill:#fff;fill-rule:evenodd;stroke:#666;stroke-width:.5;stroke-linecap:butt;stroke-linejoin:miter;stroke-miterlimit:4;stroke-opacity:1;stroke-dasharray:none;display:inline"/><path id="path4804" d="m -20.128001,210.41818 c 0,0 -4,8 -4,8 0,0 0,2 0,2 l 4,0 0,2 2,0 0,-2 2,0 0,-2 -2,0 0,-8 -2,0 z m 0,8 0,-4 -2,4 2,0 z" style="fill:#fff;fill-rule:evenodd;stroke:#666;stroke-width:.5;stroke-linecap:butt;stroke-linejoin:miter;stroke-miterlimit:4;stroke-opacity:1;stroke-dasharray:none;display:inline"/><path id="path4806" d="m 15.871999,213.41818 c 0,-3 -4,-3 -4,-3 -3.9999997,0 -3.9999997,4 -3.9999997,4 l 0,4 c 0,0 0,4 3.9999997,4 4,0 4,-4 4,-4 0,0 0,-4 -4,-4 0,0 -1.9999997,0 -1.9999997,1 0,0 0,-3 1.9999997,-3 0,0 2,0 2,1 0,0 2,0 2,0 z m -4,3 c 2,0 2,2 2,2 0,2 -2,2 -2,2 -1.9999997,0 -1.9999997,-2 -1.9999997,-2 0,-2 1.9999997,-2 1.9999997,-2 z" style="fill:#fff;fill-rule:evenodd;stroke:#666;stroke-width:.5;stroke-linecap:butt;stroke-linejoin:miter;stroke-miterlimit:4;stroke-opacity:1;stroke-dasharray:none;display:inline"/><path style="fill:#fff;fill-rule:evenodd;stroke:#666;stroke-width:.5;stroke-linecap:butt;stroke-linejoin:miter;stroke-miterlimit:4;stroke-opacity:1;stroke-dasharray:none;display:inline" id="path4808" d="m 55.871999,219.41818 c 0,3 4,3 4,3 4,0 4,-4 4,-4 l 0,-4 c 0,0 0,-4 -4,-4 -4,0 -4,4 -4,4 0,0 0,4 4,4 0,0 2,0 2,-1 0,0 0,3 -2,3 0,0 -2,0 -2,-1 0,0 -2,0 -2,0 z m 4,-3 c -2,0 -2,-2 -2,-2 0,-2 2,-2 2,-2 2,0 2,2 2,2 0,2 -2,2 -2,2 z"/><path id="path4810" d="m -74.128001,248.41818 c 0,0 0,6 5,6 0,0 0,2 4,2 0,0 0,-1 0,-1 -2,0 -2,-1 -2,-1 5,0 5,-6 5,-6 0,-1 0,-6 -6,-6 -6,0 -6,5 -6,6 z m 2,0 c 0,-4 4,-4 4,-4 0,0 4,0 4,4 0,4 -4,4 -4,4 0,0 -4,0 -4,-4 z" style="fill:#fff;fill-rule:evenodd;stroke:#666;stroke-width:.5;stroke-linecap:butt;stroke-linejoin:miter;stroke-miterlimit:4;stroke-opacity:1;stroke-dasharray:none;display:inline"/><path id="path4812" d="m -58.128001,242.41818 0,12 2,0 0,-4 2,0 4,4 2,0 0,-1 -3,-3 c 3,0 3,-4 3,-4 0,-4 -4,-4 -4,-4 l -6,0 z m 2,2 0,4 4,0 c 2,0 1.932832,-1.03898 2,-2 0,-2 -2,-2 -2,-2 l -4,0 z" style="fill:#fff;fill-rule:evenodd;stroke:#666;stroke-width:.5;stroke-linecap:butt;stroke-linejoin:miter;stroke-miterlimit:4;stroke-opacity:1;stroke-dasharray:none;display:inline"/><path style="fill:#fff;fill-rule:evenodd;stroke:#666;stroke-width:.5;stroke-linecap:butt;stroke-linejoin:miter;stroke-miterlimit:4;stroke-opacity:1;stroke-dasharray:none;display:inline" id="path4814" d="m 25.871999,283.41818 -1,-2 -2,-4 -2,0 4,9 2,0 1,-2 1,2 2,0 4,-9 -2,0 -2,4 -1,2 -1,-1 0,-4 -2,0 0,4 -1,1 z"/><path style="fill:#fff;fill-rule:evenodd;stroke:#666;stroke-width:.5;stroke-linecap:butt;stroke-linejoin:miter;stroke-miterlimit:4;stroke-opacity:1;stroke-dasharray:none;display:inline" id="path4816" d="m -68.128001,270.41818 c 0,0 4,0 4,0 l 0,-5 c 0,-4 -4,-4 -4,-4 0,0 -4,0 -4,3 0,0 2,0 2,0 0,0 0,-1 1,-1 0,0 2,0 2,0 0,0 1,0 1,1 0,0 -2,0 -2,0 -4,0 -4,3 -4,3 0,0 0,0 0,0 0,0 0,3 4,3 z m 2,-2 -3,0 c -1,0 -1,-1 -1,-1 0,0 0,-1 1,-1 l 3,0 c 0,0 0,2 0,2 z"/><g id="g4818" transform="translate(-108.128,101.056)" style="stroke:#666;stroke-width:.5;stroke-miterlimit:4;stroke-opacity:1;stroke-dasharray:none;display:inline"><path style="fill:#fff;fill-rule:evenodd;stroke:#666;stroke-width:.5;stroke-linecap:butt;stroke-linejoin:miter;stroke-miterlimit:4;stroke-opacity:1;stroke-dasharray:none" id="path4820" d="m 119,103.36218 c 0,0 5,0 5,-4.999997 l 2,0 c 0,1 0,0.999997 0,0.999997 0,0 0,6 -6,6 0,0 -2,0 -2,0 -4,0 -4,-4 -4,-4 0,-4 3,-4 3,-4 0,0 -1,0 -1,-2 0,0 0,-2 4,-2 0,0 4,0 4,2 0,0 0,3 -2,3 -2,0 -6,-1 -6,3 0,2 2,2 2,2 0,0 1,0 1,0 z m 1,-8 c 0,0 2,0 2,1 0,0 0,1 -2,1 0,0 -2,0 -2,-1 0,0 0,-1 2,-1 z"/><path id="path4822" d="m 101,37 8,8 1,0 0,-1 -7,-7 -2,0 z" transform="translate(16,60.36218)" style="fill:#fff;fill-rule:evenodd;stroke:#666;stroke-width:.5;stroke-linecap:butt;stroke-linejoin:miter;stroke-miterlimit:4;stroke-opacity:1;stroke-dasharray:none"/></g><path id="path4824" d="m -64.128001,277.41818 0,11 -2,0 0,-3 c 0,1 -2,1 -2,1 0,0 -4,0 -4,-4 l 0,-1 c 0,-4 4,-4 4,-4 0,0 2,0 2,1 l 0,-1 2,0 z m -2,3 0,3 c 0,1 -2,1 -2,1 0,0 -2,0 -2,-2 l 0,-1 c 0,-2 2,-2 2,-2 0,0 2,0 2,1 z" style="fill:#fff;fill-rule:evenodd;stroke:#666;stroke-width:.5;stroke-linecap:butt;stroke-linejoin:miter;stroke-miterlimit:4;stroke-opacity:1;stroke-dasharray:none;display:inline"/><path id="path4826" d="m -16.128001,258.41818 0,12 c 0,0 -4,0 -4,0 0,0 -4,0 -4,-4 l 0,-1 c 0,0 0,-4 4,-4 0,0 2,0 2,0 l 0,-3 2,0 z m -6,7 0,1 c 0,2 2,2 2,2 0,0 2,0 2,0 l 0,-5 c 0,0 -2,0 -2,0 0,0 -2,0 -2,2 z" style="fill:#fff;fill-rule:evenodd;stroke:#666;stroke-width:.5;stroke-linecap:butt;stroke-linejoin:miter;stroke-miterlimit:4;stroke-opacity:1;stroke-dasharray:none;display:inline"/><path style="fill:#fff;fill-rule:evenodd;stroke:#666;stroke-width:.5;stroke-linecap:butt;stroke-linejoin:miter;stroke-miterlimit:4;stroke-opacity:1;stroke-dasharray:none;display:inline" id="path4828" d="m 47.871999,194.41818 2,0 0,1 -2,1 c 0,0 -2,2 -2,4 l 0,2 c 0,2 2,4 2,4 l 2,1 0,1 -2,0 -2,-1 c 0,0 -2,-2 -2,-4 l 0,-4 c 0,-2 2,-4 2,-4 l 2,-1 z"/><path id="path4830" d="m 55.871999,194.41818 -2,0 0,1 2,1 c 0,0 2,2 2,4 l 0,2 c 0,2 -2,4 -2,4 l -2,1 0,1 2,0 2,-1 c 0,0 2,-2 2,-4 l 0,-4 c 0,-2 -2,-4 -2,-4 l -2,-1 z" style="fill:#fff;fill-rule:evenodd;stroke:#666;stroke-width:.5;stroke-linecap:butt;stroke-linejoin:miter;stroke-miterlimit:4;stroke-opacity:1;stroke-dasharray:none;display:inline"/><path style="fill:#fff;fill-rule:evenodd;stroke:#666;stroke-width:.5;stroke-linecap:butt;stroke-linejoin:miter;stroke-miterlimit:4;stroke-opacity:1;stroke-dasharray:none;display:inline" id="path4832" d="m 97.871999,274.41818 0,2 -2,0 c -1,0 -2,2 -2,4 l 0,2 c 0,2 1,4 2,4 l 2,0 0,2 -2,0 c -1,0 -2,-1 -2,-1 0,0 -2,-2 -2,-4 l 0,-1 -2,0 0,-2 2,0 0,-1 c 0,-2 2,-4 2,-4 0,0 1,-1 2,-1 l 2,0 z"/><path id="path4834" d="m 117.872,274.41818 0,2 2,0 c 1,0 2,2 2,4 l 0,2 c 0,2 -1,4 -2,4 l -2,0 0,2 2,0 c 1,0 2,-1 2,-1 0,0 2,-2 2,-4 l 0,-1 2,0 0,-2 -2,0 0,-1 c 0,-2 -2,-4 -2,-4 0,0 -1,-1 -2,-1 l -2,0 z" style="fill:#fff;fill-rule:evenodd;stroke:#666;stroke-width:.5;stroke-linecap:butt;stroke-linejoin:miter;stroke-miterlimit:4;stroke-opacity:1;stroke-dasharray:none;display:inline"/><path style="fill:#fff;fill-rule:evenodd;stroke:#666;stroke-width:.5;stroke-linecap:butt;stroke-linejoin:miter;stroke-miterlimit:4;stroke-opacity:1;stroke-dasharray:none;display:inline" id="path4836" d="m 159.872,280.41818 -5,0 3,-3 0,-1 -2,0 -4,4 0,2 4,4 2,0 0,-1 -3,-3 5,0 0,-2 z"/><path id="path4838" d="m 53.871999,277.41818 4,8 c 0,1 -1,1 -1,1 l -3,0 0,2 4,0 c 0,0 2,0 2,-3 l 4,-8 -2,0 -3,6 -3,-6 -2,0 z" style="fill:#fff;fill-rule:evenodd;stroke:#666;stroke-width:.5;stroke-linecap:butt;stroke-linejoin:miter;stroke-miterlimit:4;stroke-opacity:1;stroke-dasharray:none;display:inline"/><path id="path4840" d="m 23.871999,254.41818 -2,-12 2,0 2,8 2,-6 2,6 2,-8 2,0 -2,12 -2,0 -2,-4 -2,4 -2,0 z" style="fill:#fff;fill-rule:evenodd;stroke:#666;stroke-width:.5;stroke-linecap:butt;stroke-linejoin:miter;stroke-miterlimit:4;stroke-opacity:1;stroke-dasharray:none;display:inline"/></g></g></svg>