<svg xmlns="http://www.w3.org/2000/svg" xmlns:svg="http://www.w3.org/2000/svg" id="svg2" width="256" height="256" version="1.1"><metadata id="metadata7"/><g id="layer1" transform="translate(0,-796.36218)"><path style="fill:none;stroke:#fff;stroke-width:7.46394539000000012;stroke-miterlimit:4;stroke-opacity:.50196081;stroke-dasharray:none" id="path2911" d="m 241.83051,116.52319 c 0,62.97205 -53.58159,114.02098 -119.67782,114.02098 -66.096237,0 -119.6778212,-51.04893 -119.6778212,-114.02098 0,-62.972041 53.5815842,-114.0209698 119.6778212,-114.0209698 66.09623,0 119.67782,51.0489288 119.67782,114.0209698 z" transform="matrix(1.0283297,0,0,1.0793475,2.3867635,798.59317)"/><path style="fill:#fff;fill-opacity:1;stroke:#fff;stroke-width:4.59100008;stroke-miterlimit:4;stroke-opacity:1;stroke-dasharray:none;stroke-dashoffset:0" id="path3685" d="m 149.55308,102.91138 c 0,7.41996 -7.91456,13.43503 -17.67767,13.43503 -9.76311,0 -17.67767,-6.01507 -17.67767,-13.43503 0,-7.419965 7.91456,-13.435032 17.67767,-13.435032 9.76311,0 17.67767,6.015067 17.67767,13.435032 z" transform="matrix(0.49234918,0,0,0.64782785,63.071249,857.69332)"/></g></svg>