<svg xmlns="http://www.w3.org/2000/svg" xmlns:svg="http://www.w3.org/2000/svg" id="svg2" width="256" height="256" version="1.1"><metadata id="metadata7"/><g id="layer1" transform="translate(0,-796.36218)"><path style="fill:none;stroke:#fff;stroke-width:7.46394539000000012;stroke-miterlimit:4;stroke-opacity:.50196081;stroke-dasharray:none" id="path2911" d="m 241.83051,116.52319 c 0,62.97205 -53.58159,114.02098 -119.67782,114.02098 -66.096237,0 -119.6778212,-51.04893 -119.6778212,-114.02098 0,-62.972041 53.5815842,-114.0209698 119.6778212,-114.0209698 66.09623,0 119.67782,51.0489288 119.67782,114.0209698 z" transform="matrix(1.0283297,0,0,1.0793475,2.3867635,798.59317)"/><path style="fill:#fff;fill-opacity:1;fill-rule:nonzero;stroke:none" id="rect3782" d="m 121.9375,883.86218 0,34.4375 -34.4375,0 0,12.125 34.4375,0 0,34.4375 12.125,0 0,-34.4375 34.4375,0 0,-12.125 -34.4375,0 0,-34.4375 -12.125,0 z"/></g></svg>