<svg xmlns="http://www.w3.org/2000/svg" xmlns:svg="http://www.w3.org/2000/svg" id="svg2" width="256" height="256" version="1.1"><metadata id="metadata7"/><g id="layer1" transform="translate(0,-796.36218)"><path style="fill:#fff;fill-opacity:.50196078;stroke:none" id="path2911" d="M 75.375 12.40625 C 31.508602 32.413828 1 76.638808 1 128 C 1 179.3612 31.508602 223.58617 75.375 243.59375 L 95 200.875 C 67.290364 188.30305 48 160.40968 48 128 C 48 95.590318 67.290364 67.696949 95 55.125 L 75.375 12.40625 z M 180.625 12.40625 L 161 55.125 C 188.70964 67.696949 208 95.590318 208 128 C 208 160.40968 188.70964 188.30305 161 200.875 L 180.625 243.59375 C 224.4914 223.58617 255 179.3612 255 128 C 255 76.638808 224.4914 32.413828 180.625 12.40625 z" transform="translate(0,796.36218)"/><path style="fill:#fff;fill-opacity:1;stroke:#fff;stroke-width:4.59100008;stroke-miterlimit:4;stroke-opacity:1;stroke-dasharray:none;stroke-dashoffset:0" id="path3685" d="m 149.55308,102.91138 c 0,7.41996 -7.91456,13.43503 -17.67767,13.43503 -9.76311,0 -17.67767,-6.01507 -17.67767,-13.43503 0,-7.419965 7.91456,-13.435032 17.67767,-13.435032 9.76311,0 17.67767,6.015067 17.67767,13.435032 z" transform="matrix(0.49234918,0,0,0.64782785,63.071249,857.69332)"/></g></svg>