<svg xmlns="http://www.w3.org/2000/svg" xmlns:svg="http://www.w3.org/2000/svg" id="svg2" width="64" height="64" version="1.0"><metadata id="metadata7"/><g style="display:inline" id="layer2"><rect id="rect3203" width="64" height="64" x="0" y="0" style="fill:#4d4d4d;fill-opacity:1;fill-rule:nonzero;stroke:none"/></g><g style="display:inline" id="layer1"><path id="path3201" d="m 10.341098,3.9961429 43.317804,0 c 0,0 9.844955,0 9.844955,10.0013771 l 0,20.002756 c 0,10.001377 -9.844955,10.001377 -9.844955,10.001377 l -5.906973,0 C 47.751929,58.003582 32,60.003857 32,60.003857 c 0,0 5.906973,-4.000551 5.906973,-16.002204 l -27.565875,0 c -9.84495508,0 -9.84495508,-10.001377 -9.84495508,-10.001377 l 0,-20.002756 c 0,-10.0013771 9.84495508,-10.0013771 9.84495508,-10.0013771 z" style="fill:#00f;fill-opacity:.49019608;fill-rule:evenodd;stroke:#0050ff;stroke-width:.99228585;stroke-opacity:1"/><g style="stroke:none;fill:#007dff;opacity:1;fill-opacity:.49019608" id="g3193" transform="translate(3,0)"><path style="fill:#007dff;fill-rule:evenodd;stroke:none;fill-opacity:.49019608" id="path3187" d="m 11,24 0,8 8,0 0,-8 -8,0 z"/><path id="path3189" d="m 25,24 0,8 8,0 0,-8 -8,0 z" style="fill:#007dff;fill-rule:evenodd;stroke:none;fill-opacity:.49019608"/><path style="fill:#007dff;fill-rule:evenodd;stroke:none;fill-opacity:.49019608" id="path3191" d="m 39,24 0,8 8,0 0,-8 -8,0 z"/></g></g><g style="display:none" id="layer3"><path style="fill:#000;fill-rule:evenodd;stroke:#000;stroke-width:.1;stroke-linecap:butt;stroke-linejoin:miter;stroke-miterlimit:4;stroke-dasharray:none;stroke-opacity:1;display:inline" id="path2405" d="M 8,4 L 56,4 C 56,4 64,4 64,12 L 64,36 C 64,44 56,44 56,44 L 48,44 L 32,60 L 32,44 L 8,44 C 0,44 0,36 0,36 L 0,12 C 0,4 8,4 8,4 z M 8,8 L 56,8 C 56,8 60,8 60,12 L 60,36 C 60,40 56,40 56,40 L 46,40 L 36,50 L 36,40 L 8,40 C 4,40 4,36 4,36 L 4,12 C 4,8 8,8 8,8 z"/></g></svg>